<svg width="25" height="25" viewBox="0 0 25 25" fill="none" xmlns="http://www.w3.org/2000/svg">
<path d="M21.1774 4.40397C19.5591 3.64681 17.8287 3.09653 16.0197 2.7832C15.7975 3.18488 15.538 3.72515 15.359 4.15493C13.4359 3.86572 11.5306 3.86572 9.64287 4.15493C9.46395 3.72515 9.19849 3.18488 8.97433 2.7832C7.16334 3.09653 5.431 3.64883 3.8127 4.40797C0.548586 9.34048 -0.336262 14.1505 0.106163 18.8922C2.2711 20.5089 4.36918 21.491 6.43185 22.1336C6.94113 21.4327 7.39535 20.6876 7.78664 19.9024C7.04141 19.6192 6.32763 19.2697 5.6532 18.8641C5.83213 18.7315 6.00714 18.5929 6.17623 18.4503C10.2898 20.3743 14.7593 20.3743 18.8237 18.4503C18.9948 18.5929 19.1697 18.7315 19.3467 18.8641C18.6703 19.2717 17.9546 19.6212 17.2093 19.9044C17.6006 20.6876 18.0529 21.4347 18.5641 22.1356C20.6288 21.493 22.7288 20.5109 24.8937 18.8922C25.4129 13.3953 24.0069 8.62952 21.1774 4.40397ZM8.34706 15.9761C7.11221 15.9761 6.09953 14.8233 6.09953 13.4194C6.09953 12.0156 7.09059 10.8608 8.34706 10.8608C9.60357 10.8608 10.6162 12.0136 10.5946 13.4194C10.5965 14.8233 9.60357 15.9761 8.34706 15.9761ZM16.6529 15.9761C15.418 15.9761 14.4053 14.8233 14.4053 13.4194C14.4053 12.0156 15.3963 10.8608 16.6529 10.8608C17.9093 10.8608 18.922 12.0136 18.9004 13.4194C18.9004 14.8233 17.9093 15.9761 16.6529 15.9761Z" fill="white"/>
</svg>
