<svg width="214" height="51" viewBox="0 0 214 51" fill="none" xmlns="http://www.w3.org/2000/svg">
<path d="M135.288 45.6799C134.559 46.0732 134.287 46.9831 134.68 47.7122C135.073 48.4413 135.983 48.7135 136.712 48.3201L135.288 45.6799ZM213.437 6.42989C213.674 5.63622 213.224 4.80035 212.43 4.56292L199.496 0.693868C198.703 0.456444 197.867 0.907375 197.629 1.70105C197.392 2.49473 197.843 3.3306 198.636 3.56802L210.133 7.00718L206.694 18.5038C206.456 19.2975 206.907 20.1333 207.701 20.3708C208.495 20.6082 209.331 20.1573 209.568 19.3636L213.437 6.42989ZM136.712 48.3201L212.712 7.32015L211.288 4.67985L135.288 45.6799L136.712 48.3201Z" fill="#3C84E2"/>
<path d="M6.524 30.22H15.932V33.86H6.524V30.22ZM6.86 41H2.324V21.4H17.136V25.04H6.86V41ZM20.1788 41V20.224H24.5468V41H20.1788ZM36.3567 41.224C34.6394 41.224 33.1274 40.888 31.8207 40.216C30.5327 39.544 29.534 38.6293 28.8247 37.472C28.1154 36.296 27.7607 34.9613 27.7607 33.468C27.7607 31.956 28.106 30.6213 28.7967 29.464C29.506 28.288 30.4674 27.3733 31.6807 26.72C32.894 26.048 34.266 25.712 35.7967 25.712C37.2714 25.712 38.5967 26.0293 39.7727 26.664C40.9674 27.28 41.91 28.176 42.6007 29.352C43.2914 30.5093 43.6367 31.9 43.6367 33.524C43.6367 33.692 43.6274 33.888 43.6087 34.112C43.59 34.3173 43.5714 34.5133 43.5527 34.7H31.3167V32.152H41.2567L39.5767 32.908C39.5767 32.124 39.418 31.4427 39.1007 30.864C38.7834 30.2853 38.3447 29.8373 37.7847 29.52C37.2247 29.184 36.5714 29.016 35.8247 29.016C35.078 29.016 34.4154 29.184 33.8367 29.52C33.2767 29.8373 32.838 30.2947 32.5207 30.892C32.2034 31.4707 32.0447 32.1613 32.0447 32.964V33.636C32.0447 34.4573 32.222 35.1853 32.5767 35.82C32.95 36.436 33.4634 36.912 34.1167 37.248C34.7887 37.5653 35.5727 37.724 36.4687 37.724C37.2714 37.724 37.9714 37.6027 38.5687 37.36C39.1847 37.1173 39.7447 36.7533 40.2487 36.268L42.5727 38.788C41.882 39.572 41.014 40.1787 39.9687 40.608C38.9234 41.0187 37.7194 41.224 36.3567 41.224ZM54.6648 41.224C53.0408 41.224 51.5941 40.8973 50.3248 40.244C49.0554 39.572 48.0568 38.648 47.3288 37.472C46.6194 36.296 46.2648 34.9613 46.2648 33.468C46.2648 31.956 46.6194 30.6213 47.3288 29.464C48.0568 28.288 49.0554 27.3733 50.3248 26.72C51.5941 26.048 53.0408 25.712 54.6648 25.712C56.2514 25.712 57.6328 26.048 58.8088 26.72C59.9848 27.3733 60.8528 28.316 61.4128 29.548L58.0248 31.368C57.6328 30.6587 57.1381 30.136 56.5408 29.8C55.9621 29.464 55.3274 29.296 54.6368 29.296C53.8901 29.296 53.2181 29.464 52.6208 29.8C52.0234 30.136 51.5474 30.612 51.1928 31.228C50.8568 31.844 50.6888 32.5907 50.6888 33.468C50.6888 34.3453 50.8568 35.092 51.1928 35.708C51.5474 36.324 52.0234 36.8 52.6208 37.136C53.2181 37.472 53.8901 37.64 54.6368 37.64C55.3274 37.64 55.9621 37.4813 56.5408 37.164C57.1381 36.828 57.6328 36.296 58.0248 35.568L61.4128 37.416C60.8528 38.6293 59.9848 39.572 58.8088 40.244C57.6328 40.8973 56.2514 41.224 54.6648 41.224ZM71.1465 41.224C69.3731 41.224 67.9918 40.776 67.0025 39.88C66.0131 38.9653 65.5185 37.612 65.5185 35.82V22.604H69.8865V35.764C69.8865 36.3987 70.0545 36.8933 70.3905 37.248C70.7265 37.584 71.1838 37.752 71.7625 37.752C72.4531 37.752 73.0411 37.5653 73.5265 37.192L74.7025 40.272C74.2545 40.5893 73.7131 40.832 73.0785 41C72.4625 41.1493 71.8185 41.224 71.1465 41.224ZM63.1945 29.632V26.272H73.6385V29.632H63.1945ZM84.4176 41.224C82.8123 41.224 81.3843 40.888 80.1336 40.216C78.9016 39.544 77.9216 38.6293 77.1936 37.472C76.4843 36.296 76.1296 34.9613 76.1296 33.468C76.1296 31.956 76.4843 30.6213 77.1936 29.464C77.9216 28.288 78.9016 27.3733 80.1336 26.72C81.3843 26.048 82.8123 25.712 84.4176 25.712C86.0043 25.712 87.4229 26.048 88.6736 26.72C89.9243 27.3733 90.9043 28.2787 91.6136 29.436C92.3229 30.5933 92.6776 31.9373 92.6776 33.468C92.6776 34.9613 92.3229 36.296 91.6136 37.472C90.9043 38.6293 89.9243 39.544 88.6736 40.216C87.4229 40.888 86.0043 41.224 84.4176 41.224ZM84.4176 37.64C85.1456 37.64 85.7989 37.472 86.3776 37.136C86.9563 36.8 87.4136 36.324 87.7496 35.708C88.0856 35.0733 88.2536 34.3267 88.2536 33.468C88.2536 32.5907 88.0856 31.844 87.7496 31.228C87.4136 30.612 86.9563 30.136 86.3776 29.8C85.7989 29.464 85.1456 29.296 84.4176 29.296C83.6896 29.296 83.0363 29.464 82.4576 29.8C81.8789 30.136 81.4123 30.612 81.0576 31.228C80.7216 31.844 80.5536 32.5907 80.5536 33.468C80.5536 34.3267 80.7216 35.0733 81.0576 35.708C81.4123 36.324 81.8789 36.8 82.4576 37.136C83.0363 37.472 83.6896 37.64 84.4176 37.64ZM104.753 25.712C105.948 25.712 107.012 25.9547 107.945 26.44C108.897 26.9067 109.644 27.6347 110.185 28.624C110.727 29.5947 110.997 30.8453 110.997 32.376V41H106.629V33.048C106.629 31.8347 106.359 30.9387 105.817 30.36C105.295 29.7813 104.548 29.492 103.577 29.492C102.887 29.492 102.261 29.6413 101.701 29.94C101.16 30.22 100.731 30.6587 100.413 31.256C100.115 31.8533 99.9653 32.6187 99.9653 33.552V41H95.5973V25.936H99.7693V30.108L98.9853 28.848C99.5266 27.84 100.301 27.0653 101.309 26.524C102.317 25.9827 103.465 25.712 104.753 25.712ZM122.542 41.224C120.825 41.224 119.313 40.888 118.006 40.216C116.718 39.544 115.719 38.6293 115.01 37.472C114.301 36.296 113.946 34.9613 113.946 33.468C113.946 31.956 114.291 30.6213 114.982 29.464C115.691 28.288 116.653 27.3733 117.866 26.72C119.079 26.048 120.451 25.712 121.982 25.712C123.457 25.712 124.782 26.0293 125.958 26.664C127.153 27.28 128.095 28.176 128.786 29.352C129.477 30.5093 129.822 31.9 129.822 33.524C129.822 33.692 129.813 33.888 129.794 34.112C129.775 34.3173 129.757 34.5133 129.738 34.7H117.502V32.152H127.442L125.762 32.908C125.762 32.124 125.603 31.4427 125.286 30.864C124.969 30.2853 124.53 29.8373 123.97 29.52C123.41 29.184 122.757 29.016 122.01 29.016C121.263 29.016 120.601 29.184 120.022 29.52C119.462 29.8373 119.023 30.2947 118.706 30.892C118.389 31.4707 118.23 32.1613 118.23 32.964V33.636C118.23 34.4573 118.407 35.1853 118.762 35.82C119.135 36.436 119.649 36.912 120.302 37.248C120.974 37.5653 121.758 37.724 122.654 37.724C123.457 37.724 124.157 37.6027 124.754 37.36C125.37 37.1173 125.93 36.7533 126.434 36.268L128.758 38.788C128.067 39.572 127.199 40.1787 126.154 40.608C125.109 41.0187 123.905 41.224 122.542 41.224Z" fill="#3C84E2"/>
<path d="M133.038 41V21.4H141.522C143.277 21.4 144.789 21.6893 146.058 22.268C147.327 22.828 148.307 23.64 148.998 24.704C149.689 25.768 150.034 27.0373 150.034 28.512C150.034 29.968 149.689 31.228 148.998 32.292C148.307 33.356 147.327 34.1773 146.058 34.756C144.789 35.316 143.277 35.596 141.522 35.596H135.558L137.574 33.552V41H133.038ZM137.574 34.056L135.558 31.9H141.27C142.67 31.9 143.715 31.6013 144.406 31.004C145.097 30.4067 145.442 29.576 145.442 28.512C145.442 27.4293 145.097 26.5893 144.406 25.992C143.715 25.3947 142.67 25.096 141.27 25.096H135.558L137.574 22.94V34.056ZM159.594 41.224C158.343 41.224 157.223 40.9813 156.234 40.496C155.263 40.0107 154.507 39.2733 153.966 38.284C153.425 37.276 153.154 35.9973 153.154 34.448V25.936H157.522V33.804C157.522 35.0547 157.783 35.9787 158.306 36.576C158.847 37.1547 159.603 37.444 160.574 37.444C161.246 37.444 161.843 37.304 162.366 37.024C162.889 36.7253 163.299 36.2773 163.598 35.68C163.897 35.064 164.046 34.2987 164.046 33.384V25.936H168.414V41H164.27V36.856L165.026 38.06C164.522 39.1053 163.775 39.8987 162.786 40.44C161.815 40.9627 160.751 41.224 159.594 41.224ZM172.461 41V20.224H176.829V41H172.461ZM185.95 41.224C184.662 41.224 183.421 41.0747 182.226 40.776C181.05 40.4587 180.117 40.0667 179.426 39.6L180.882 36.464C181.573 36.8933 182.385 37.248 183.318 37.528C184.27 37.7893 185.204 37.92 186.118 37.92C187.126 37.92 187.836 37.7987 188.246 37.556C188.676 37.3133 188.89 36.9773 188.89 36.548C188.89 36.1933 188.722 35.932 188.386 35.764C188.069 35.5773 187.64 35.4373 187.098 35.344C186.557 35.2507 185.96 35.1573 185.306 35.064C184.672 34.9707 184.028 34.8493 183.374 34.7C182.721 34.532 182.124 34.2893 181.582 33.972C181.041 33.6547 180.602 33.2253 180.266 32.684C179.949 32.1427 179.79 31.4427 179.79 30.584C179.79 29.632 180.061 28.792 180.602 28.064C181.162 27.336 181.965 26.7667 183.01 26.356C184.056 25.9267 185.306 25.712 186.762 25.712C187.789 25.712 188.834 25.824 189.898 26.048C190.962 26.272 191.849 26.5987 192.558 27.028L191.102 30.136C190.374 29.7067 189.637 29.4173 188.89 29.268C188.162 29.1 187.453 29.016 186.762 29.016C185.792 29.016 185.082 29.1467 184.634 29.408C184.186 29.6693 183.962 30.0053 183.962 30.416C183.962 30.7893 184.121 31.0693 184.438 31.256C184.774 31.4427 185.213 31.592 185.754 31.704C186.296 31.816 186.884 31.9187 187.518 32.012C188.172 32.0867 188.825 32.208 189.478 32.376C190.132 32.544 190.72 32.7867 191.242 33.104C191.784 33.4027 192.222 33.8227 192.558 34.364C192.894 34.8867 193.062 35.5773 193.062 36.436C193.062 37.3693 192.782 38.2 192.222 38.928C191.662 39.6373 190.85 40.1973 189.786 40.608C188.741 41.0187 187.462 41.224 185.95 41.224ZM203.233 41.224C201.516 41.224 200.004 40.888 198.697 40.216C197.409 39.544 196.411 38.6293 195.701 37.472C194.992 36.296 194.637 34.9613 194.637 33.468C194.637 31.956 194.983 30.6213 195.673 29.464C196.383 28.288 197.344 27.3733 198.557 26.72C199.771 26.048 201.143 25.712 202.673 25.712C204.148 25.712 205.473 26.0293 206.649 26.664C207.844 27.28 208.787 28.176 209.477 29.352C210.168 30.5093 210.513 31.9 210.513 33.524C210.513 33.692 210.504 33.888 210.485 34.112C210.467 34.3173 210.448 34.5133 210.429 34.7H198.193V32.152H208.133L206.453 32.908C206.453 32.124 206.295 31.4427 205.977 30.864C205.66 30.2853 205.221 29.8373 204.661 29.52C204.101 29.184 203.448 29.016 202.701 29.016C201.955 29.016 201.292 29.184 200.713 29.52C200.153 29.8373 199.715 30.2947 199.397 30.892C199.08 31.4707 198.921 32.1613 198.921 32.964V33.636C198.921 34.4573 199.099 35.1853 199.453 35.82C199.827 36.436 200.34 36.912 200.993 37.248C201.665 37.5653 202.449 37.724 203.345 37.724C204.148 37.724 204.848 37.6027 205.445 37.36C206.061 37.1173 206.621 36.7533 207.125 36.268L209.449 38.788C208.759 39.572 207.891 40.1787 206.845 40.608C205.8 41.0187 204.596 41.224 203.233 41.224Z" fill="white"/>
<path d="M5 47L20.9647 34" stroke="white" stroke-width="3" stroke-linecap="round"/>
<path d="M37.1215 47.01L21.1568 34.01" stroke="white" stroke-width="3" stroke-linecap="round"/>
<path d="M37.3261 47L53.2908 34" stroke="white" stroke-width="3" stroke-linecap="round"/>
<path d="M69.8568 47.01L53.8921 34.01" stroke="white" stroke-width="3" stroke-linecap="round"/>
<path d="M70.1432 47L86.1079 34" stroke="white" stroke-width="3" stroke-linecap="round"/>
<path d="M102.265 47.01L86.3 34.01" stroke="white" stroke-width="3" stroke-linecap="round"/>
<path d="M102.469 47L118.434 34" stroke="white" stroke-width="3" stroke-linecap="round"/>
<path d="M135 47.01L119.035 34.01" stroke="white" stroke-width="3" stroke-linecap="round"/>
<path d="M6.855 46.36C6.855 47.6109 5.84092 48.625 4.59 48.625C3.33907 48.625 2.325 47.6109 2.325 46.36H6.855ZM2.325 42.86L2.325 40.595H6.855L6.855 42.86H2.325ZM2.325 46.36L2.325 42.86H6.855L6.855 46.36H2.325Z" fill="#3C84E2"/>
<path d="M137.565 46.5C137.565 47.7509 136.551 48.765 135.3 48.765C134.049 48.765 133.035 47.7509 133.035 46.5H137.565ZM133.035 43V40.735H137.565V43H133.035ZM133.035 46.5V43H137.565L137.565 46.5H133.035Z" fill="white"/>
</svg>
