<svg width="25" height="25" viewBox="0 0 25 25" fill="none" xmlns="http://www.w3.org/2000/svg">
<g clip-path="url(#clip0_64_10)">
<path fill-rule="evenodd" clip-rule="evenodd" d="M12.5 0C19.4037 0 25 5.73741 25 12.8162C25 18.4774 21.4225 23.2799 16.4587 24.9762C15.825 25.1024 15.6 24.7022 15.6 24.361C15.6 23.9385 15.615 22.5585 15.615 20.8435C15.615 19.6485 15.215 18.8686 14.7663 18.4711C17.55 18.1536 20.475 17.0697 20.475 12.1472C20.475 10.7472 19.99 9.60478 19.1875 8.70728C19.3175 8.38353 19.7462 7.07994 19.065 5.31494C19.065 5.31494 18.0175 4.97153 15.6312 6.62903C14.6325 6.34528 13.5625 6.20251 12.5 6.19751C11.4375 6.20251 10.3688 6.34528 9.37125 6.62903C6.9825 4.97153 5.9325 5.31494 5.9325 5.31494C5.25375 7.07994 5.6825 8.38353 5.81125 8.70728C5.0125 9.60478 4.52375 10.7472 4.52375 12.1472C4.52375 17.0572 7.4425 18.1577 10.2188 18.4814C9.86125 18.8014 9.5375 19.366 9.425 20.1947C8.7125 20.5222 6.9025 21.089 5.7875 19.1302C5.7875 19.1302 5.12625 17.8988 3.87125 17.8088C3.87125 17.8088 2.6525 17.7926 3.78625 18.5876C3.78625 18.5876 4.605 18.9814 5.17375 20.4626C5.17375 20.4626 5.9075 22.7501 9.385 21.9751C9.39125 23.0463 9.4025 24.056 9.4025 24.361C9.4025 24.6997 9.1725 25.0962 8.54875 24.9774C3.58125 23.2837 0 18.4787 0 12.8162C0 5.73741 5.5975 0 12.5 0Z" fill="white"/>
</g>
<defs>
<clipPath id="clip0_64_10">
<rect width="25" height="25" fill="white"/>
</clipPath>
</defs>
</svg>
