<svg width="48" height="48" viewBox="0 0 48 48" fill="none" xmlns="http://www.w3.org/2000/svg">
<g clip-path="url(#clip0_3_54)">
<path d="M18 38C8 41 8 33 4 32M32 44V36.26C32.075 35.3063 31.9462 34.3476 31.622 33.4476C31.2979 32.5476 30.7859 31.7268 30.12 31.04C36.4 30.34 43 27.96 43 17.04C42.9995 14.2477 41.9254 11.5624 40 9.54C40.9117 7.09701 40.8472 4.3967 39.82 2C39.82 2 37.46 1.3 32 4.96C27.416 3.71764 22.584 3.71764 18 4.96C12.54 1.3 10.18 2 10.18 2C9.15275 4.3967 9.08829 7.09701 10 9.54C8.06025 11.5774 6.98505 14.2869 7 17.1C7 27.94 13.6 30.32 19.88 31.1C19.222 31.7799 18.7145 32.5908 18.3906 33.4798C18.0667 34.3689 17.9336 35.3161 18 36.26V44" stroke="#F5F5F5" stroke-width="4" stroke-linecap="round" stroke-linejoin="round"/>
</g>
<defs>
<clipPath id="clip0_3_54">
<rect width="48" height="48" fill="white"/>
</clipPath>
</defs>
</svg>
