<svg width="2048" height="346" viewBox="0 0 2048 346" fill="none" xmlns="http://www.w3.org/2000/svg">
<rect x="850" width="296" height="82" rx="8" fill="#1B1B1B"/>
<path d="M997.75 82V90C997.75 95.5228 993.273 100 987.75 100L69.5 100C63.9772 100 59.5 104.477 59.5 110L59.5 170" stroke="#4DB5FF"/>
<path d="M2.016 216V200.936H6.384V216H2.016ZM4.2 198.836C3.39733 198.836 2.744 198.603 2.24 198.136C1.736 197.669 1.484 197.091 1.484 196.4C1.484 195.709 1.736 195.131 2.24 194.664C2.744 194.197 3.39733 193.964 4.2 193.964C5.00267 193.964 5.656 194.188 6.16 194.636C6.664 195.065 6.916 195.625 6.916 196.316C6.916 197.044 6.664 197.651 6.16 198.136C5.67467 198.603 5.02133 198.836 4.2 198.836ZM29.7299 200.712C30.9245 200.712 31.9792 200.955 32.8939 201.44C33.8272 201.907 34.5552 202.635 35.0779 203.624C35.6192 204.595 35.8899 205.845 35.8899 207.376V216H31.5219V208.048C31.5219 206.835 31.2699 205.939 30.7659 205.36C30.2619 204.781 29.5525 204.492 28.6379 204.492C28.0032 204.492 27.4339 204.641 26.9299 204.94C26.4259 205.22 26.0339 205.649 25.7539 206.228C25.4739 206.807 25.3339 207.544 25.3339 208.44V216H20.9659V208.048C20.9659 206.835 20.7139 205.939 20.2099 205.36C19.7245 204.781 19.0245 204.492 18.1099 204.492C17.4752 204.492 16.9059 204.641 16.4019 204.94C15.8979 205.22 15.5059 205.649 15.2259 206.228C14.9459 206.807 14.8059 207.544 14.8059 208.44V216H10.4379V200.936H14.6099V205.052L13.8259 203.848C14.3485 202.821 15.0859 202.047 16.0379 201.524C17.0085 200.983 18.1099 200.712 19.3419 200.712C20.7232 200.712 21.9272 201.067 22.9539 201.776C23.9992 202.467 24.6899 203.531 25.0259 204.968L23.4859 204.548C23.9899 203.372 24.7925 202.439 25.8939 201.748C27.0139 201.057 28.2925 200.712 29.7299 200.712ZM49.0451 216V213.06L48.7651 212.416V207.152C48.7651 206.219 48.4757 205.491 47.8971 204.968C47.3371 204.445 46.4691 204.184 45.2931 204.184C44.4904 204.184 43.6971 204.315 42.9131 204.576C42.1477 204.819 41.4944 205.155 40.9531 205.584L39.3851 202.532C40.2064 201.953 41.1957 201.505 42.3531 201.188C43.5104 200.871 44.6864 200.712 45.8811 200.712C48.1771 200.712 49.9597 201.253 51.2291 202.336C52.4984 203.419 53.1331 205.108 53.1331 207.404V216H49.0451ZM44.4531 216.224C43.2771 216.224 42.2691 216.028 41.4291 215.636C40.5891 215.225 39.9451 214.675 39.4971 213.984C39.0491 213.293 38.8251 212.519 38.8251 211.66C38.8251 210.764 39.0397 209.98 39.4691 209.308C39.9171 208.636 40.6171 208.113 41.5691 207.74C42.5211 207.348 43.7624 207.152 45.2931 207.152H49.2971V209.7H45.7691C44.7424 209.7 44.0331 209.868 43.6411 210.204C43.2677 210.54 43.0811 210.96 43.0811 211.464C43.0811 212.024 43.2957 212.472 43.7251 212.808C44.1731 213.125 44.7797 213.284 45.5451 213.284C46.2731 213.284 46.9264 213.116 47.5051 212.78C48.0837 212.425 48.5037 211.912 48.7651 211.24L49.4371 213.256C49.1197 214.227 48.5411 214.964 47.7011 215.468C46.8611 215.972 45.7784 216.224 44.4531 216.224ZM64.2797 221.656C62.861 221.656 61.489 221.479 60.1637 221.124C58.857 220.788 57.765 220.275 56.8877 219.584L58.6237 216.448C59.2584 216.971 60.061 217.381 61.0317 217.68C62.021 217.997 62.9917 218.156 63.9437 218.156C65.493 218.156 66.613 217.811 67.3037 217.12C68.013 216.429 68.3677 215.403 68.3677 214.04V211.772L68.6477 207.992L68.5917 204.184V200.936H72.7357V213.48C72.7357 216.28 72.0077 218.343 70.5517 219.668C69.0957 220.993 67.005 221.656 64.2797 221.656ZM63.6077 215.272C62.2077 215.272 60.9384 214.973 59.7997 214.376C58.6797 213.76 57.7744 212.911 57.0837 211.828C56.4117 210.727 56.0757 209.448 56.0757 207.992C56.0757 206.517 56.4117 205.239 57.0837 204.156C57.7744 203.055 58.6797 202.205 59.7997 201.608C60.9384 201.011 62.2077 200.712 63.6077 200.712C64.877 200.712 65.997 200.973 66.9677 201.496C67.9384 202 68.6944 202.793 69.2357 203.876C69.777 204.94 70.0477 206.312 70.0477 207.992C70.0477 209.653 69.777 211.025 69.2357 212.108C68.6944 213.172 67.9384 213.965 66.9677 214.488C65.997 215.011 64.877 215.272 63.6077 215.272ZM64.4757 211.688C65.241 211.688 65.9224 211.539 66.5197 211.24C67.117 210.923 67.5837 210.484 67.9197 209.924C68.2557 209.364 68.4237 208.72 68.4237 207.992C68.4237 207.245 68.2557 206.601 67.9197 206.06C67.5837 205.5 67.117 205.071 66.5197 204.772C65.9224 204.455 65.241 204.296 64.4757 204.296C63.7104 204.296 63.029 204.455 62.4317 204.772C61.8344 205.071 61.3584 205.5 61.0037 206.06C60.6677 206.601 60.4997 207.245 60.4997 207.992C60.4997 208.72 60.6677 209.364 61.0037 209.924C61.3584 210.484 61.8344 210.923 62.4317 211.24C63.029 211.539 63.7104 211.688 64.4757 211.688ZM84.2772 216.224C82.5598 216.224 81.0478 215.888 79.7412 215.216C78.4532 214.544 77.4545 213.629 76.7452 212.472C76.0358 211.296 75.6812 209.961 75.6812 208.468C75.6812 206.956 76.0265 205.621 76.7172 204.464C77.4265 203.288 78.3878 202.373 79.6012 201.72C80.8145 201.048 82.1865 200.712 83.7172 200.712C85.1918 200.712 86.5172 201.029 87.6932 201.664C88.8878 202.28 89.8305 203.176 90.5212 204.352C91.2118 205.509 91.5572 206.9 91.5572 208.524C91.5572 208.692 91.5478 208.888 91.5292 209.112C91.5105 209.317 91.4918 209.513 91.4732 209.7H79.2372V207.152H89.1772L87.4972 207.908C87.4972 207.124 87.3385 206.443 87.0212 205.864C86.7038 205.285 86.2652 204.837 85.7052 204.52C85.1452 204.184 84.4918 204.016 83.7452 204.016C82.9985 204.016 82.3358 204.184 81.7572 204.52C81.1972 204.837 80.7585 205.295 80.4412 205.892C80.1238 206.471 79.9652 207.161 79.9652 207.964V208.636C79.9652 209.457 80.1425 210.185 80.4972 210.82C80.8705 211.436 81.3838 211.912 82.0372 212.248C82.7092 212.565 83.4932 212.724 84.3892 212.724C85.1918 212.724 85.8918 212.603 86.4892 212.36C87.1052 212.117 87.6652 211.753 88.1692 211.268L90.4932 213.788C89.8025 214.572 88.9345 215.179 87.8892 215.608C86.8438 216.019 85.6398 216.224 84.2772 216.224ZM99.5332 216.224C98.2452 216.224 97.0039 216.075 95.8092 215.776C94.6332 215.459 93.6999 215.067 93.0092 214.6L94.4652 211.464C95.1559 211.893 95.9679 212.248 96.9012 212.528C97.8532 212.789 98.7866 212.92 99.7012 212.92C100.709 212.92 101.419 212.799 101.829 212.556C102.259 212.313 102.473 211.977 102.473 211.548C102.473 211.193 102.305 210.932 101.969 210.764C101.652 210.577 101.223 210.437 100.681 210.344C100.14 210.251 99.5426 210.157 98.8892 210.064C98.2546 209.971 97.6106 209.849 96.9572 209.7C96.3039 209.532 95.7066 209.289 95.1652 208.972C94.6239 208.655 94.1852 208.225 93.8492 207.684C93.5319 207.143 93.3732 206.443 93.3732 205.584C93.3732 204.632 93.6439 203.792 94.1852 203.064C94.7452 202.336 95.5479 201.767 96.5932 201.356C97.6386 200.927 98.8892 200.712 100.345 200.712C101.372 200.712 102.417 200.824 103.481 201.048C104.545 201.272 105.432 201.599 106.141 202.028L104.685 205.136C103.957 204.707 103.22 204.417 102.473 204.268C101.745 204.1 101.036 204.016 100.345 204.016C99.3746 204.016 98.6652 204.147 98.2172 204.408C97.7692 204.669 97.5452 205.005 97.5452 205.416C97.5452 205.789 97.7039 206.069 98.0212 206.256C98.3572 206.443 98.7959 206.592 99.3372 206.704C99.8786 206.816 100.467 206.919 101.101 207.012C101.755 207.087 102.408 207.208 103.061 207.376C103.715 207.544 104.303 207.787 104.825 208.104C105.367 208.403 105.805 208.823 106.141 209.364C106.477 209.887 106.645 210.577 106.645 211.436C106.645 212.369 106.365 213.2 105.805 213.928C105.245 214.637 104.433 215.197 103.369 215.608C102.324 216.019 101.045 216.224 99.5332 216.224ZM106.4 218.8L115.64 192.424H119.532L110.292 218.8H106.4Z" fill="white"/>
<path d="M997.75 82V90C997.75 95.5228 993.273 100 987.75 100L273.5 100C267.977 100 263.5 104.477 263.5 110V170" stroke="#4DA6FF"/>
<path d="M201.016 216V195.224H205.384V216H201.016ZM209.438 216V200.936H213.806V216H209.438ZM211.622 198.836C210.819 198.836 210.166 198.603 209.662 198.136C209.158 197.669 208.906 197.091 208.906 196.4C208.906 195.709 209.158 195.131 209.662 194.664C210.166 194.197 210.819 193.964 211.622 193.964C212.425 193.964 213.078 194.188 213.582 194.636C214.086 195.065 214.338 195.625 214.338 196.316C214.338 197.044 214.086 197.651 213.582 198.136C213.097 198.603 212.443 198.836 211.622 198.836ZM226.764 216.224C225.438 216.224 224.3 215.944 223.348 215.384C222.396 214.824 221.668 213.975 221.164 212.836C220.66 211.679 220.408 210.223 220.408 208.468C220.408 206.695 220.669 205.239 221.192 204.1C221.733 202.961 222.48 202.112 223.432 201.552C224.384 200.992 225.494 200.712 226.764 200.712C228.182 200.712 229.452 201.029 230.572 201.664C231.71 202.299 232.606 203.195 233.26 204.352C233.932 205.509 234.268 206.881 234.268 208.468C234.268 210.036 233.932 211.399 233.26 212.556C232.606 213.713 231.71 214.619 230.572 215.272C229.452 215.907 228.182 216.224 226.764 216.224ZM217.86 216V195.224H222.228V203.988L221.948 208.44L222.032 212.92V216H217.86ZM226.008 212.64C226.736 212.64 227.38 212.472 227.94 212.136C228.518 211.8 228.976 211.324 229.312 210.708C229.666 210.073 229.844 209.327 229.844 208.468C229.844 207.591 229.666 206.844 229.312 206.228C228.976 205.612 228.518 205.136 227.94 204.8C227.38 204.464 226.736 204.296 226.008 204.296C225.28 204.296 224.626 204.464 224.048 204.8C223.469 205.136 223.012 205.612 222.676 206.228C222.34 206.844 222.172 207.591 222.172 208.468C222.172 209.327 222.34 210.073 222.676 210.708C223.012 211.324 223.469 211.8 224.048 212.136C224.626 212.472 225.28 212.64 226.008 212.64ZM237.192 216V200.936H241.364V205.192L240.776 203.96C241.224 202.896 241.942 202.093 242.932 201.552C243.921 200.992 245.125 200.712 246.544 200.712V204.744C246.357 204.725 246.189 204.716 246.04 204.716C245.89 204.697 245.732 204.688 245.564 204.688C244.369 204.688 243.398 205.033 242.652 205.724C241.924 206.396 241.56 207.451 241.56 208.888V216H237.192ZM257.397 216V213.06L257.117 212.416V207.152C257.117 206.219 256.827 205.491 256.249 204.968C255.689 204.445 254.821 204.184 253.645 204.184C252.842 204.184 252.049 204.315 251.265 204.576C250.499 204.819 249.846 205.155 249.305 205.584L247.737 202.532C248.558 201.953 249.547 201.505 250.705 201.188C251.862 200.871 253.038 200.712 254.233 200.712C256.529 200.712 258.311 201.253 259.581 202.336C260.85 203.419 261.485 205.108 261.485 207.404V216H257.397ZM252.805 216.224C251.629 216.224 250.621 216.028 249.781 215.636C248.941 215.225 248.297 214.675 247.849 213.984C247.401 213.293 247.177 212.519 247.177 211.66C247.177 210.764 247.391 209.98 247.821 209.308C248.269 208.636 248.969 208.113 249.921 207.74C250.873 207.348 252.114 207.152 253.645 207.152H257.649V209.7H254.121C253.094 209.7 252.385 209.868 251.993 210.204C251.619 210.54 251.433 210.96 251.433 211.464C251.433 212.024 251.647 212.472 252.077 212.808C252.525 213.125 253.131 213.284 253.897 213.284C254.625 213.284 255.278 213.116 255.857 212.78C256.435 212.425 256.855 211.912 257.117 211.24L257.789 213.256C257.471 214.227 256.893 214.964 256.053 215.468C255.213 215.972 254.13 216.224 252.805 216.224ZM265.438 216V200.936H269.61V205.192L269.022 203.96C269.47 202.896 270.189 202.093 271.178 201.552C272.167 200.992 273.371 200.712 274.79 200.712V204.744C274.603 204.725 274.435 204.716 274.286 204.716C274.137 204.697 273.978 204.688 273.81 204.688C272.615 204.688 271.645 205.033 270.898 205.724C270.17 206.396 269.806 207.451 269.806 208.888V216H265.438ZM277.414 216V200.936H281.782V216H277.414ZM279.598 198.836C278.796 198.836 278.142 198.603 277.638 198.136C277.134 197.669 276.882 197.091 276.882 196.4C276.882 195.709 277.134 195.131 277.638 194.664C278.142 194.197 278.796 193.964 279.598 193.964C280.401 193.964 281.054 194.188 281.558 194.636C282.062 195.065 282.314 195.625 282.314 196.316C282.314 197.044 282.062 197.651 281.558 198.136C281.073 198.603 280.42 198.836 279.598 198.836ZM293.312 216.224C291.595 216.224 290.083 215.888 288.776 215.216C287.488 214.544 286.49 213.629 285.78 212.472C285.071 211.296 284.716 209.961 284.716 208.468C284.716 206.956 285.062 205.621 285.752 204.464C286.462 203.288 287.423 202.373 288.636 201.72C289.85 201.048 291.222 200.712 292.752 200.712C294.227 200.712 295.552 201.029 296.728 201.664C297.923 202.28 298.866 203.176 299.556 204.352C300.247 205.509 300.592 206.9 300.592 208.524C300.592 208.692 300.583 208.888 300.564 209.112C300.546 209.317 300.527 209.513 300.508 209.7H288.272V207.152H298.212L296.532 207.908C296.532 207.124 296.374 206.443 296.056 205.864C295.739 205.285 295.3 204.837 294.74 204.52C294.18 204.184 293.527 204.016 292.78 204.016C292.034 204.016 291.371 204.184 290.792 204.52C290.232 204.837 289.794 205.295 289.476 205.892C289.159 206.471 289 207.161 289 207.964V208.636C289 209.457 289.178 210.185 289.532 210.82C289.906 211.436 290.419 211.912 291.072 212.248C291.744 212.565 292.528 212.724 293.424 212.724C294.227 212.724 294.927 212.603 295.524 212.36C296.14 212.117 296.7 211.753 297.204 211.268L299.528 213.788C298.838 214.572 297.97 215.179 296.924 215.608C295.879 216.019 294.675 216.224 293.312 216.224ZM308.568 216.224C307.28 216.224 306.039 216.075 304.844 215.776C303.668 215.459 302.735 215.067 302.044 214.6L303.5 211.464C304.191 211.893 305.003 212.248 305.936 212.528C306.888 212.789 307.822 212.92 308.736 212.92C309.744 212.92 310.454 212.799 310.864 212.556C311.294 212.313 311.508 211.977 311.508 211.548C311.508 211.193 311.34 210.932 311.004 210.764C310.687 210.577 310.258 210.437 309.716 210.344C309.175 210.251 308.578 210.157 307.924 210.064C307.29 209.971 306.646 209.849 305.992 209.7C305.339 209.532 304.742 209.289 304.2 208.972C303.659 208.655 303.22 208.225 302.884 207.684C302.567 207.143 302.408 206.443 302.408 205.584C302.408 204.632 302.679 203.792 303.22 203.064C303.78 202.336 304.583 201.767 305.628 201.356C306.674 200.927 307.924 200.712 309.38 200.712C310.407 200.712 311.452 200.824 312.516 201.048C313.58 201.272 314.467 201.599 315.176 202.028L313.72 205.136C312.992 204.707 312.255 204.417 311.508 204.268C310.78 204.1 310.071 204.016 309.38 204.016C308.41 204.016 307.7 204.147 307.252 204.408C306.804 204.669 306.58 205.005 306.58 205.416C306.58 205.789 306.739 206.069 307.056 206.256C307.392 206.443 307.831 206.592 308.372 206.704C308.914 206.816 309.502 206.919 310.136 207.012C310.79 207.087 311.443 207.208 312.096 207.376C312.75 207.544 313.338 207.787 313.86 208.104C314.402 208.403 314.84 208.823 315.176 209.364C315.512 209.887 315.68 210.577 315.68 211.436C315.68 212.369 315.4 213.2 314.84 213.928C314.28 214.637 313.468 215.197 312.404 215.608C311.359 216.019 310.08 216.224 308.568 216.224ZM315.435 218.8L324.675 192.424H328.567L319.327 218.8H315.435Z" fill="white"/>
<path d="M517.75 238V241.091C517.75 246.614 513.273 251.091 507.75 251.091H467.5C461.977 251.091 457.5 255.568 457.5 261.091V302" stroke="#4D96FF"/>
<path d="M414.78 337.16C413.553 337.16 412.473 336.92 411.54 336.44C410.62 335.96 409.907 335.307 409.4 334.48C408.893 333.64 408.64 332.687 408.64 331.62C408.64 330.54 408.887 329.587 409.38 328.76C409.887 327.92 410.573 327.267 411.44 326.8C412.307 326.32 413.287 326.08 414.38 326.08C415.433 326.08 416.38 326.307 417.22 326.76C418.073 327.2 418.747 327.84 419.24 328.68C419.733 329.507 419.98 330.5 419.98 331.66C419.98 331.78 419.973 331.92 419.96 332.08C419.947 332.227 419.933 332.367 419.92 332.5H411.18V330.68H418.28L417.08 331.22C417.08 330.66 416.967 330.173 416.74 329.76C416.513 329.347 416.2 329.027 415.8 328.8C415.4 328.56 414.933 328.44 414.4 328.44C413.867 328.44 413.393 328.56 412.98 328.8C412.58 329.027 412.267 329.353 412.04 329.78C411.813 330.193 411.7 330.687 411.7 331.26V331.74C411.7 332.327 411.827 332.847 412.08 333.3C412.347 333.74 412.713 334.08 413.18 334.32C413.66 334.547 414.22 334.66 414.86 334.66C415.433 334.66 415.933 334.573 416.36 334.4C416.8 334.227 417.2 333.967 417.56 333.62L419.22 335.42C418.727 335.98 418.107 336.413 417.36 336.72C416.613 337.013 415.753 337.16 414.78 337.16ZM428.597 326.08C429.451 326.08 430.211 326.253 430.877 326.6C431.557 326.933 432.091 327.453 432.477 328.16C432.864 328.853 433.057 329.747 433.057 330.84V337H429.937V331.32C429.937 330.453 429.744 329.813 429.357 329.4C428.984 328.987 428.451 328.78 427.757 328.78C427.264 328.78 426.817 328.887 426.417 329.1C426.031 329.3 425.724 329.613 425.497 330.04C425.284 330.467 425.177 331.013 425.177 331.68V337H422.057V326.24H425.037V329.22L424.477 328.32C424.864 327.6 425.417 327.047 426.137 326.66C426.857 326.273 427.677 326.08 428.597 326.08ZM434.445 338.8V337H444.445V338.8H434.445ZM449.957 337.16C449.063 337.16 448.263 336.987 447.557 336.64C446.863 336.293 446.323 335.767 445.937 335.06C445.55 334.34 445.357 333.427 445.357 332.32V326.24H448.477V331.86C448.477 332.753 448.663 333.413 449.037 333.84C449.423 334.253 449.963 334.46 450.657 334.46C451.137 334.46 451.563 334.36 451.937 334.16C452.31 333.947 452.603 333.627 452.817 333.2C453.03 332.76 453.137 332.213 453.137 331.56V326.24H456.257V337H453.297V334.04L453.837 334.9C453.477 335.647 452.943 336.213 452.237 336.6C451.543 336.973 450.783 337.16 449.957 337.16ZM462.767 337.16C461.847 337.16 460.96 337.053 460.107 336.84C459.267 336.613 458.6 336.333 458.107 336L459.147 333.76C459.64 334.067 460.22 334.32 460.887 334.52C461.567 334.707 462.234 334.8 462.887 334.8C463.607 334.8 464.114 334.713 464.407 334.54C464.714 334.367 464.867 334.127 464.867 333.82C464.867 333.567 464.747 333.38 464.507 333.26C464.28 333.127 463.974 333.027 463.587 332.96C463.2 332.893 462.774 332.827 462.307 332.76C461.854 332.693 461.394 332.607 460.927 332.5C460.46 332.38 460.034 332.207 459.647 331.98C459.26 331.753 458.947 331.447 458.707 331.06C458.48 330.673 458.367 330.173 458.367 329.56C458.367 328.88 458.56 328.28 458.947 327.76C459.347 327.24 459.92 326.833 460.667 326.54C461.414 326.233 462.307 326.08 463.347 326.08C464.08 326.08 464.827 326.16 465.587 326.32C466.347 326.48 466.98 326.713 467.487 327.02L466.447 329.24C465.927 328.933 465.4 328.727 464.867 328.62C464.347 328.5 463.84 328.44 463.347 328.44C462.654 328.44 462.147 328.533 461.827 328.72C461.507 328.907 461.347 329.147 461.347 329.44C461.347 329.707 461.46 329.907 461.687 330.04C461.927 330.173 462.24 330.28 462.627 330.36C463.014 330.44 463.434 330.513 463.887 330.58C464.354 330.633 464.82 330.72 465.287 330.84C465.754 330.96 466.174 331.133 466.547 331.36C466.934 331.573 467.247 331.873 467.487 332.26C467.727 332.633 467.847 333.127 467.847 333.74C467.847 334.407 467.647 335 467.247 335.52C466.847 336.027 466.267 336.427 465.507 336.72C464.76 337.013 463.847 337.16 462.767 337.16ZM470.952 337.16C470.419 337.16 469.959 336.98 469.572 336.62C469.199 336.247 469.012 335.773 469.012 335.2C469.012 334.627 469.199 334.167 469.572 333.82C469.959 333.46 470.419 333.28 470.952 333.28C471.499 333.28 471.959 333.46 472.332 333.82C472.705 334.167 472.892 334.627 472.892 335.2C472.892 335.773 472.705 336.247 472.332 336.62C471.959 336.98 471.499 337.16 470.952 337.16ZM475.722 341.04C475.162 341.04 474.609 340.953 474.062 340.78C473.515 340.607 473.069 340.367 472.722 340.06L473.862 337.84C474.102 338.053 474.375 338.22 474.682 338.34C475.002 338.46 475.315 338.52 475.622 338.52C476.062 338.52 476.409 338.413 476.662 338.2C476.929 338 477.169 337.66 477.382 337.18L477.942 335.86L478.182 335.52L482.042 326.24H485.042L480.182 337.66C479.835 338.527 479.435 339.207 478.982 339.7C478.542 340.193 478.049 340.54 477.502 340.74C476.969 340.94 476.375 341.04 475.722 341.04ZM477.562 337.42L472.762 326.24H475.982L479.702 335.24L477.562 337.42ZM500.095 326.08C500.948 326.08 501.702 326.253 502.355 326.6C503.022 326.933 503.542 327.453 503.915 328.16C504.302 328.853 504.495 329.747 504.495 330.84V337H501.375V331.32C501.375 330.453 501.195 329.813 500.835 329.4C500.475 328.987 499.968 328.78 499.315 328.78C498.862 328.78 498.455 328.887 498.095 329.1C497.735 329.3 497.455 329.607 497.255 330.02C497.055 330.433 496.955 330.96 496.955 331.6V337H493.835V331.32C493.835 330.453 493.655 329.813 493.295 329.4C492.948 328.987 492.448 328.78 491.795 328.78C491.342 328.78 490.935 328.887 490.575 329.1C490.215 329.3 489.935 329.607 489.735 330.02C489.535 330.433 489.435 330.96 489.435 331.6V337H486.315V326.24H489.295V329.18L488.735 328.32C489.108 327.587 489.635 327.033 490.315 326.66C491.008 326.273 491.795 326.08 492.675 326.08C493.662 326.08 494.522 326.333 495.255 326.84C496.002 327.333 496.495 328.093 496.735 329.12L495.635 328.82C495.995 327.98 496.568 327.313 497.355 326.82C498.155 326.327 499.068 326.08 500.095 326.08ZM507.292 337V322.16H510.412V337H507.292Z" fill="white"/>
<path d="M517.75 238V241.091C517.75 246.614 522.227 251.091 527.75 251.091H568C573.523 251.091 578 255.568 578 261.091V302" stroke="#4D96FF"/>
<path d="M532.44 337V326.24H535.42V329.28L535 328.4C535.32 327.64 535.833 327.067 536.54 326.68C537.247 326.28 538.107 326.08 539.12 326.08V328.96C538.987 328.947 538.867 328.94 538.76 328.94C538.653 328.927 538.54 328.92 538.42 328.92C537.567 328.92 536.873 329.167 536.34 329.66C535.82 330.14 535.56 330.893 535.56 331.92V337H532.44ZM545.593 337.16C544.7 337.16 543.9 336.987 543.193 336.64C542.5 336.293 541.96 335.767 541.573 335.06C541.187 334.34 540.993 333.427 540.993 332.32V326.24H544.113V331.86C544.113 332.753 544.3 333.413 544.673 333.84C545.06 334.253 545.6 334.46 546.293 334.46C546.773 334.46 547.2 334.36 547.573 334.16C547.947 333.947 548.24 333.627 548.453 333.2C548.667 332.76 548.773 332.213 548.773 331.56V326.24H551.893V337H548.933V334.04L549.473 334.9C549.113 335.647 548.58 336.213 547.873 336.6C547.18 336.973 546.42 337.16 545.593 337.16ZM553.344 338.8V337H563.344V338.8H553.344ZM564.784 337V326.24H567.764V329.28L567.344 328.4C567.664 327.64 568.177 327.067 568.884 326.68C569.59 326.28 570.45 326.08 571.464 326.08V328.96C571.33 328.947 571.21 328.94 571.104 328.94C570.997 328.927 570.884 328.92 570.764 328.92C569.91 328.92 569.217 329.167 568.684 329.66C568.164 330.14 567.904 330.893 567.904 331.92V337H564.784ZM577.937 337.16C577.044 337.16 576.244 336.987 575.537 336.64C574.844 336.293 574.304 335.767 573.917 335.06C573.53 334.34 573.337 333.427 573.337 332.32V326.24H576.457V331.86C576.457 332.753 576.644 333.413 577.017 333.84C577.404 334.253 577.944 334.46 578.637 334.46C579.117 334.46 579.544 334.36 579.917 334.16C580.29 333.947 580.584 333.627 580.797 333.2C581.01 332.76 581.117 332.213 581.117 331.56V326.24H584.237V337H581.277V334.04L581.817 334.9C581.457 335.647 580.924 336.213 580.217 336.6C579.524 336.973 578.764 337.16 577.937 337.16ZM588.308 337.16C587.774 337.16 587.314 336.98 586.928 336.62C586.554 336.247 586.368 335.773 586.368 335.2C586.368 334.627 586.554 334.167 586.928 333.82C587.314 333.46 587.774 333.28 588.308 333.28C588.854 333.28 589.314 333.46 589.688 333.82C590.061 334.167 590.248 334.627 590.248 335.2C590.248 335.773 590.061 336.247 589.688 336.62C589.314 336.98 588.854 337.16 588.308 337.16ZM593.077 341.04C592.517 341.04 591.964 340.953 591.417 340.78C590.871 340.607 590.424 340.367 590.077 340.06L591.217 337.84C591.457 338.053 591.731 338.22 592.037 338.34C592.357 338.46 592.671 338.52 592.977 338.52C593.417 338.52 593.764 338.413 594.017 338.2C594.284 338 594.524 337.66 594.737 337.18L595.297 335.86L595.537 335.52L599.397 326.24H602.397L597.537 337.66C597.191 338.527 596.791 339.207 596.337 339.7C595.897 340.193 595.404 340.54 594.857 340.74C594.324 340.94 593.731 341.04 593.077 341.04ZM594.917 337.42L590.117 326.24H593.337L597.057 335.24L594.917 337.42ZM617.45 326.08C618.304 326.08 619.057 326.253 619.71 326.6C620.377 326.933 620.897 327.453 621.27 328.16C621.657 328.853 621.85 329.747 621.85 330.84V337H618.73V331.32C618.73 330.453 618.55 329.813 618.19 329.4C617.83 328.987 617.324 328.78 616.67 328.78C616.217 328.78 615.81 328.887 615.45 329.1C615.09 329.3 614.81 329.607 614.61 330.02C614.41 330.433 614.31 330.96 614.31 331.6V337H611.19V331.32C611.19 330.453 611.01 329.813 610.65 329.4C610.304 328.987 609.804 328.78 609.15 328.78C608.697 328.78 608.29 328.887 607.93 329.1C607.57 329.3 607.29 329.607 607.09 330.02C606.89 330.433 606.79 330.96 606.79 331.6V337H603.67V326.24H606.65V329.18L606.09 328.32C606.464 327.587 606.99 327.033 607.67 326.66C608.364 326.273 609.15 326.08 610.03 326.08C611.017 326.08 611.877 326.333 612.61 326.84C613.357 327.333 613.85 328.093 614.09 329.12L612.99 328.82C613.35 327.98 613.924 327.313 614.71 326.82C615.51 326.327 616.424 326.08 617.45 326.08ZM624.647 337V322.16H627.767V337H624.647Z" fill="white"/>
<path d="M997.75 82V90C997.75 95.5228 993.273 100 987.75 100L527.75 100C522.227 100 517.75 104.477 517.75 110V170" stroke="#4D96FF"/>
<path d="M422.266 216V195.224H426.634V216H422.266ZM437.856 216.224C436.251 216.224 434.823 215.888 433.572 215.216C432.34 214.544 431.36 213.629 430.632 212.472C429.923 211.296 429.568 209.961 429.568 208.468C429.568 206.956 429.923 205.621 430.632 204.464C431.36 203.288 432.34 202.373 433.572 201.72C434.823 201.048 436.251 200.712 437.856 200.712C439.443 200.712 440.861 201.048 442.112 201.72C443.363 202.373 444.343 203.279 445.052 204.436C445.761 205.593 446.116 206.937 446.116 208.468C446.116 209.961 445.761 211.296 445.052 212.472C444.343 213.629 443.363 214.544 442.112 215.216C440.861 215.888 439.443 216.224 437.856 216.224ZM437.856 212.64C438.584 212.64 439.237 212.472 439.816 212.136C440.395 211.8 440.852 211.324 441.188 210.708C441.524 210.073 441.692 209.327 441.692 208.468C441.692 207.591 441.524 206.844 441.188 206.228C440.852 205.612 440.395 205.136 439.816 204.8C439.237 204.464 438.584 204.296 437.856 204.296C437.128 204.296 436.475 204.464 435.896 204.8C435.317 205.136 434.851 205.612 434.496 206.228C434.16 206.844 433.992 207.591 433.992 208.468C433.992 209.327 434.16 210.073 434.496 210.708C434.851 211.324 435.317 211.8 435.896 212.136C436.475 212.472 437.128 212.64 437.856 212.64ZM456.316 216.224C454.692 216.224 453.245 215.897 451.976 215.244C450.706 214.572 449.708 213.648 448.98 212.472C448.27 211.296 447.916 209.961 447.916 208.468C447.916 206.956 448.27 205.621 448.98 204.464C449.708 203.288 450.706 202.373 451.976 201.72C453.245 201.048 454.692 200.712 456.316 200.712C457.902 200.712 459.284 201.048 460.46 201.72C461.636 202.373 462.504 203.316 463.064 204.548L459.676 206.368C459.284 205.659 458.789 205.136 458.192 204.8C457.613 204.464 456.978 204.296 456.288 204.296C455.541 204.296 454.869 204.464 454.272 204.8C453.674 205.136 453.198 205.612 452.844 206.228C452.508 206.844 452.34 207.591 452.34 208.468C452.34 209.345 452.508 210.092 452.844 210.708C453.198 211.324 453.674 211.8 454.272 212.136C454.869 212.472 455.541 212.64 456.288 212.64C456.978 212.64 457.613 212.481 458.192 212.164C458.789 211.828 459.284 211.296 459.676 210.568L463.064 212.416C462.504 213.629 461.636 214.572 460.46 215.244C459.284 215.897 457.902 216.224 456.316 216.224ZM474.819 216V213.06L474.539 212.416V207.152C474.539 206.219 474.249 205.491 473.671 204.968C473.111 204.445 472.243 204.184 471.067 204.184C470.264 204.184 469.471 204.315 468.687 204.576C467.921 204.819 467.268 205.155 466.727 205.584L465.159 202.532C465.98 201.953 466.969 201.505 468.127 201.188C469.284 200.871 470.46 200.712 471.655 200.712C473.951 200.712 475.733 201.253 477.003 202.336C478.272 203.419 478.907 205.108 478.907 207.404V216H474.819ZM470.227 216.224C469.051 216.224 468.043 216.028 467.203 215.636C466.363 215.225 465.719 214.675 465.271 213.984C464.823 213.293 464.599 212.519 464.599 211.66C464.599 210.764 464.813 209.98 465.243 209.308C465.691 208.636 466.391 208.113 467.343 207.74C468.295 207.348 469.536 207.152 471.067 207.152H475.071V209.7H471.543C470.516 209.7 469.807 209.868 469.415 210.204C469.041 210.54 468.855 210.96 468.855 211.464C468.855 212.024 469.069 212.472 469.499 212.808C469.947 213.125 470.553 213.284 471.319 213.284C472.047 213.284 472.7 213.116 473.279 212.78C473.857 212.425 474.277 211.912 474.539 211.24L475.211 213.256C474.893 214.227 474.315 214.964 473.475 215.468C472.635 215.972 471.552 216.224 470.227 216.224ZM482.86 216V195.224H487.228V216H482.86ZM491.282 216V200.936H495.65V216H491.282ZM493.466 198.836C492.663 198.836 492.01 198.603 491.506 198.136C491.002 197.669 490.75 197.091 490.75 196.4C490.75 195.709 491.002 195.131 491.506 194.664C492.01 194.197 492.663 193.964 493.466 193.964C494.268 193.964 494.922 194.188 495.426 194.636C495.93 195.065 496.182 195.625 496.182 196.316C496.182 197.044 495.93 197.651 495.426 198.136C494.94 198.603 494.287 198.836 493.466 198.836ZM498.668 216V213.368L507.572 202.84L508.328 204.296H498.864V200.936H511.856V203.568L502.952 214.096L502.168 212.64H512.108V216H498.668ZM524.147 216V213.06L523.867 212.416V207.152C523.867 206.219 523.577 205.491 522.999 204.968C522.439 204.445 521.571 204.184 520.395 204.184C519.592 204.184 518.799 204.315 518.015 204.576C517.249 204.819 516.596 205.155 516.055 205.584L514.487 202.532C515.308 201.953 516.297 201.505 517.455 201.188C518.612 200.871 519.788 200.712 520.983 200.712C523.279 200.712 525.061 201.253 526.331 202.336C527.6 203.419 528.235 205.108 528.235 207.404V216H524.147ZM519.555 216.224C518.379 216.224 517.371 216.028 516.531 215.636C515.691 215.225 515.047 214.675 514.599 213.984C514.151 213.293 513.927 212.519 513.927 211.66C513.927 210.764 514.141 209.98 514.571 209.308C515.019 208.636 515.719 208.113 516.671 207.74C517.623 207.348 518.864 207.152 520.395 207.152H524.399V209.7H520.871C519.844 209.7 519.135 209.868 518.743 210.204C518.369 210.54 518.183 210.96 518.183 211.464C518.183 212.024 518.397 212.472 518.827 212.808C519.275 213.125 519.881 213.284 520.647 213.284C521.375 213.284 522.028 213.116 522.607 212.78C523.185 212.425 523.605 211.912 523.867 211.24L524.539 213.256C524.221 214.227 523.643 214.964 522.803 215.468C521.963 215.972 520.88 216.224 519.555 216.224ZM538.348 216.224C536.575 216.224 535.193 215.776 534.204 214.88C533.215 213.965 532.72 212.612 532.72 210.82V197.604H537.088V210.764C537.088 211.399 537.256 211.893 537.592 212.248C537.928 212.584 538.385 212.752 538.964 212.752C539.655 212.752 540.243 212.565 540.728 212.192L541.904 215.272C541.456 215.589 540.915 215.832 540.28 216C539.664 216.149 539.02 216.224 538.348 216.224ZM530.396 204.632V201.272H540.84V204.632H530.396ZM544.356 216V200.936H548.724V216H544.356ZM546.54 198.836C545.737 198.836 545.084 198.603 544.58 198.136C544.076 197.669 543.824 197.091 543.824 196.4C543.824 195.709 544.076 195.131 544.58 194.664C545.084 194.197 545.737 193.964 546.54 193.964C547.343 193.964 547.996 194.188 548.5 194.636C549.004 195.065 549.256 195.625 549.256 196.316C549.256 197.044 549.004 197.651 548.5 198.136C548.015 198.603 547.361 198.836 546.54 198.836ZM559.946 216.224C558.34 216.224 556.912 215.888 555.662 215.216C554.43 214.544 553.45 213.629 552.722 212.472C552.012 211.296 551.658 209.961 551.658 208.468C551.658 206.956 552.012 205.621 552.722 204.464C553.45 203.288 554.43 202.373 555.662 201.72C556.912 201.048 558.34 200.712 559.946 200.712C561.532 200.712 562.951 201.048 564.202 201.72C565.452 202.373 566.432 203.279 567.142 204.436C567.851 205.593 568.206 206.937 568.206 208.468C568.206 209.961 567.851 211.296 567.142 212.472C566.432 213.629 565.452 214.544 564.202 215.216C562.951 215.888 561.532 216.224 559.946 216.224ZM559.946 212.64C560.674 212.64 561.327 212.472 561.906 212.136C562.484 211.8 562.942 211.324 563.278 210.708C563.614 210.073 563.782 209.327 563.782 208.468C563.782 207.591 563.614 206.844 563.278 206.228C562.942 205.612 562.484 205.136 561.906 204.8C561.327 204.464 560.674 204.296 559.946 204.296C559.218 204.296 558.564 204.464 557.986 204.8C557.407 205.136 556.94 205.612 556.586 206.228C556.25 206.844 556.082 207.591 556.082 208.468C556.082 209.327 556.25 210.073 556.586 210.708C556.94 211.324 557.407 211.8 557.986 212.136C558.564 212.472 559.218 212.64 559.946 212.64ZM580.281 200.712C581.476 200.712 582.54 200.955 583.473 201.44C584.425 201.907 585.172 202.635 585.713 203.624C586.255 204.595 586.525 205.845 586.525 207.376V216H582.157V208.048C582.157 206.835 581.887 205.939 581.345 205.36C580.823 204.781 580.076 204.492 579.105 204.492C578.415 204.492 577.789 204.641 577.229 204.94C576.688 205.22 576.259 205.659 575.941 206.256C575.643 206.853 575.493 207.619 575.493 208.552V216H571.125V200.936H575.297V205.108L574.513 203.848C575.055 202.84 575.829 202.065 576.837 201.524C577.845 200.983 578.993 200.712 580.281 200.712ZM595.553 216.224C594.265 216.224 593.023 216.075 591.829 215.776C590.653 215.459 589.719 215.067 589.029 214.6L590.485 211.464C591.175 211.893 591.987 212.248 592.921 212.528C593.873 212.789 594.806 212.92 595.721 212.92C596.729 212.92 597.438 212.799 597.849 212.556C598.278 212.313 598.493 211.977 598.493 211.548C598.493 211.193 598.325 210.932 597.989 210.764C597.671 210.577 597.242 210.437 596.701 210.344C596.159 210.251 595.562 210.157 594.909 210.064C594.274 209.971 593.63 209.849 592.977 209.7C592.323 209.532 591.726 209.289 591.185 208.972C590.643 208.655 590.205 208.225 589.869 207.684C589.551 207.143 589.393 206.443 589.393 205.584C589.393 204.632 589.663 203.792 590.205 203.064C590.765 202.336 591.567 201.767 592.613 201.356C593.658 200.927 594.909 200.712 596.365 200.712C597.391 200.712 598.437 200.824 599.501 201.048C600.565 201.272 601.451 201.599 602.161 202.028L600.705 205.136C599.977 204.707 599.239 204.417 598.493 204.268C597.765 204.1 597.055 204.016 596.365 204.016C595.394 204.016 594.685 204.147 594.237 204.408C593.789 204.669 593.565 205.005 593.565 205.416C593.565 205.789 593.723 206.069 594.041 206.256C594.377 206.443 594.815 206.592 595.357 206.704C595.898 206.816 596.486 206.919 597.121 207.012C597.774 207.087 598.427 207.208 599.081 207.376C599.734 207.544 600.322 207.787 600.845 208.104C601.386 208.403 601.825 208.823 602.161 209.364C602.497 209.887 602.665 210.577 602.665 211.436C602.665 212.369 602.385 213.2 601.825 213.928C601.265 214.637 600.453 215.197 599.389 215.608C598.343 216.019 597.065 216.224 595.553 216.224ZM602.42 218.8L611.66 192.424H615.552L606.312 218.8H602.42Z" fill="white"/>
<path d="M997.75 82V90C997.75 95.5228 993.273 100 987.75 100L828 100C822.477 100 818 104.477 818 110V170" stroke="#4D87FF"/>
<path d="M714.296 216.224C712.672 216.224 711.225 215.897 709.956 215.244C708.687 214.572 707.688 213.648 706.96 212.472C706.251 211.296 705.896 209.961 705.896 208.468C705.896 206.956 706.251 205.621 706.96 204.464C707.688 203.288 708.687 202.373 709.956 201.72C711.225 201.048 712.672 200.712 714.296 200.712C715.883 200.712 717.264 201.048 718.44 201.72C719.616 202.373 720.484 203.316 721.044 204.548L717.656 206.368C717.264 205.659 716.769 205.136 716.172 204.8C715.593 204.464 714.959 204.296 714.268 204.296C713.521 204.296 712.849 204.464 712.252 204.8C711.655 205.136 711.179 205.612 710.824 206.228C710.488 206.844 710.32 207.591 710.32 208.468C710.32 209.345 710.488 210.092 710.824 210.708C711.179 211.324 711.655 211.8 712.252 212.136C712.849 212.472 713.521 212.64 714.268 212.64C714.959 212.64 715.593 212.481 716.172 212.164C716.769 211.828 717.264 211.296 717.656 210.568L721.044 212.416C720.484 213.629 719.616 214.572 718.44 215.244C717.264 215.897 715.883 216.224 714.296 216.224ZM730.536 216.224C728.93 216.224 727.502 215.888 726.252 215.216C725.02 214.544 724.04 213.629 723.312 212.472C722.602 211.296 722.248 209.961 722.248 208.468C722.248 206.956 722.602 205.621 723.312 204.464C724.04 203.288 725.02 202.373 726.252 201.72C727.502 201.048 728.93 200.712 730.536 200.712C732.122 200.712 733.541 201.048 734.792 201.72C736.042 202.373 737.022 203.279 737.732 204.436C738.441 205.593 738.796 206.937 738.796 208.468C738.796 209.961 738.441 211.296 737.732 212.472C737.022 213.629 736.042 214.544 734.792 215.216C733.541 215.888 732.122 216.224 730.536 216.224ZM730.536 212.64C731.264 212.64 731.917 212.472 732.496 212.136C733.074 211.8 733.532 211.324 733.868 210.708C734.204 210.073 734.372 209.327 734.372 208.468C734.372 207.591 734.204 206.844 733.868 206.228C733.532 205.612 733.074 205.136 732.496 204.8C731.917 204.464 731.264 204.296 730.536 204.296C729.808 204.296 729.154 204.464 728.576 204.8C727.997 205.136 727.53 205.612 727.176 206.228C726.84 206.844 726.672 207.591 726.672 208.468C726.672 209.327 726.84 210.073 727.176 210.708C727.53 211.324 727.997 211.8 728.576 212.136C729.154 212.472 729.808 212.64 730.536 212.64ZM761.007 200.712C762.202 200.712 763.257 200.955 764.171 201.44C765.105 201.907 765.833 202.635 766.355 203.624C766.897 204.595 767.167 205.845 767.167 207.376V216H762.799V208.048C762.799 206.835 762.547 205.939 762.043 205.36C761.539 204.781 760.83 204.492 759.915 204.492C759.281 204.492 758.711 204.641 758.207 204.94C757.703 205.22 757.311 205.649 757.031 206.228C756.751 206.807 756.611 207.544 756.611 208.44V216H752.243V208.048C752.243 206.835 751.991 205.939 751.487 205.36C751.002 204.781 750.302 204.492 749.387 204.492C748.753 204.492 748.183 204.641 747.679 204.94C747.175 205.22 746.783 205.649 746.503 206.228C746.223 206.807 746.083 207.544 746.083 208.44V216H741.715V200.936H745.887V205.052L745.103 203.848C745.626 202.821 746.363 202.047 747.315 201.524C748.286 200.983 749.387 200.712 750.619 200.712C752.001 200.712 753.205 201.067 754.231 201.776C755.277 202.467 755.967 203.531 756.303 204.968L754.763 204.548C755.267 203.372 756.07 202.439 757.171 201.748C758.291 201.057 759.57 200.712 761.007 200.712ZM790.374 200.712C791.569 200.712 792.624 200.955 793.538 201.44C794.472 201.907 795.2 202.635 795.722 203.624C796.264 204.595 796.534 205.845 796.534 207.376V216H792.166V208.048C792.166 206.835 791.914 205.939 791.41 205.36C790.906 204.781 790.197 204.492 789.282 204.492C788.648 204.492 788.078 204.641 787.574 204.94C787.07 205.22 786.678 205.649 786.398 206.228C786.118 206.807 785.978 207.544 785.978 208.44V216H781.61V208.048C781.61 206.835 781.358 205.939 780.854 205.36C780.369 204.781 779.669 204.492 778.754 204.492C778.12 204.492 777.55 204.641 777.046 204.94C776.542 205.22 776.15 205.649 775.87 206.228C775.59 206.807 775.45 207.544 775.45 208.44V216H771.082V200.936H775.254V205.052L774.47 203.848C774.993 202.821 775.73 202.047 776.682 201.524C777.653 200.983 778.754 200.712 779.986 200.712C781.368 200.712 782.572 201.067 783.598 201.776C784.644 202.467 785.334 203.531 785.67 204.968L784.13 204.548C784.634 203.372 785.437 202.439 786.538 201.748C787.658 201.057 788.937 200.712 790.374 200.712ZM809.69 216V213.06L809.41 212.416V207.152C809.41 206.219 809.12 205.491 808.542 204.968C807.982 204.445 807.114 204.184 805.938 204.184C805.135 204.184 804.342 204.315 803.558 204.576C802.792 204.819 802.139 205.155 801.598 205.584L800.03 202.532C800.851 201.953 801.84 201.505 802.998 201.188C804.155 200.871 805.331 200.712 806.526 200.712C808.822 200.712 810.604 201.253 811.874 202.336C813.143 203.419 813.778 205.108 813.778 207.404V216H809.69ZM805.098 216.224C803.922 216.224 802.914 216.028 802.074 215.636C801.234 215.225 800.59 214.675 800.142 213.984C799.694 213.293 799.47 212.519 799.47 211.66C799.47 210.764 799.684 209.98 800.114 209.308C800.562 208.636 801.262 208.113 802.214 207.74C803.166 207.348 804.407 207.152 805.938 207.152H809.942V209.7H806.414C805.387 209.7 804.678 209.868 804.286 210.204C803.912 210.54 803.726 210.96 803.726 211.464C803.726 212.024 803.94 212.472 804.37 212.808C804.818 213.125 805.424 213.284 806.19 213.284C806.918 213.284 807.571 213.116 808.15 212.78C808.728 212.425 809.148 211.912 809.41 211.24L810.082 213.256C809.764 214.227 809.186 214.964 808.346 215.468C807.506 215.972 806.423 216.224 805.098 216.224ZM826.887 200.712C828.082 200.712 829.146 200.955 830.079 201.44C831.031 201.907 831.778 202.635 832.319 203.624C832.86 204.595 833.131 205.845 833.131 207.376V216H828.763V208.048C828.763 206.835 828.492 205.939 827.951 205.36C827.428 204.781 826.682 204.492 825.711 204.492C825.02 204.492 824.395 204.641 823.835 204.94C823.294 205.22 822.864 205.659 822.547 206.256C822.248 206.853 822.099 207.619 822.099 208.552V216H817.731V200.936H821.903V205.108L821.119 203.848C821.66 202.84 822.435 202.065 823.443 201.524C824.451 200.983 825.599 200.712 826.887 200.712ZM843.668 216.224C842.249 216.224 840.97 215.907 839.832 215.272C838.693 214.619 837.788 213.713 837.116 212.556C836.462 211.399 836.136 210.036 836.136 208.468C836.136 206.881 836.462 205.509 837.116 204.352C837.788 203.195 838.693 202.299 839.832 201.664C840.97 201.029 842.249 200.712 843.668 200.712C844.937 200.712 846.048 200.992 847 201.552C847.952 202.112 848.689 202.961 849.212 204.1C849.734 205.239 849.996 206.695 849.996 208.468C849.996 210.223 849.744 211.679 849.24 212.836C848.736 213.975 848.008 214.824 847.056 215.384C846.122 215.944 844.993 216.224 843.668 216.224ZM844.424 212.64C845.133 212.64 845.777 212.472 846.356 212.136C846.934 211.8 847.392 211.324 847.728 210.708C848.082 210.073 848.26 209.327 848.26 208.468C848.26 207.591 848.082 206.844 847.728 206.228C847.392 205.612 846.934 205.136 846.356 204.8C845.777 204.464 845.133 204.296 844.424 204.296C843.696 204.296 843.042 204.464 842.464 204.8C841.885 205.136 841.418 205.612 841.064 206.228C840.728 206.844 840.56 207.591 840.56 208.468C840.56 209.327 840.728 210.073 841.064 210.708C841.418 211.324 841.885 211.8 842.464 212.136C843.042 212.472 843.696 212.64 844.424 212.64ZM848.372 216V212.92L848.456 208.44L848.176 203.988V195.224H852.544V216H848.372ZM861.654 216.224C860.366 216.224 859.125 216.075 857.93 215.776C856.754 215.459 855.821 215.067 855.13 214.6L856.586 211.464C857.277 211.893 858.089 212.248 859.022 212.528C859.974 212.789 860.908 212.92 861.822 212.92C862.83 212.92 863.54 212.799 863.95 212.556C864.38 212.313 864.594 211.977 864.594 211.548C864.594 211.193 864.426 210.932 864.09 210.764C863.773 210.577 863.344 210.437 862.802 210.344C862.261 210.251 861.664 210.157 861.01 210.064C860.376 209.971 859.732 209.849 859.078 209.7C858.425 209.532 857.828 209.289 857.286 208.972C856.745 208.655 856.306 208.225 855.97 207.684C855.653 207.143 855.494 206.443 855.494 205.584C855.494 204.632 855.765 203.792 856.306 203.064C856.866 202.336 857.669 201.767 858.714 201.356C859.76 200.927 861.01 200.712 862.466 200.712C863.493 200.712 864.538 200.824 865.602 201.048C866.666 201.272 867.553 201.599 868.262 202.028L866.806 205.136C866.078 204.707 865.341 204.417 864.594 204.268C863.866 204.1 863.157 204.016 862.466 204.016C861.496 204.016 860.786 204.147 860.338 204.408C859.89 204.669 859.666 205.005 859.666 205.416C859.666 205.789 859.825 206.069 860.142 206.256C860.478 206.443 860.917 206.592 861.458 206.704C862 206.816 862.588 206.919 863.222 207.012C863.876 207.087 864.529 207.208 865.182 207.376C865.836 207.544 866.424 207.787 866.946 208.104C867.488 208.403 867.926 208.823 868.262 209.364C868.598 209.887 868.766 210.577 868.766 211.436C868.766 212.369 868.486 213.2 867.926 213.928C867.366 214.637 866.554 215.197 865.49 215.608C864.445 216.019 863.166 216.224 861.654 216.224ZM873.113 216.224C872.367 216.224 871.723 215.972 871.181 215.468C870.659 214.945 870.397 214.283 870.397 213.48C870.397 212.677 870.659 212.033 871.181 211.548C871.723 211.044 872.367 210.792 873.113 210.792C873.879 210.792 874.523 211.044 875.045 211.548C875.568 212.033 875.829 212.677 875.829 213.48C875.829 214.283 875.568 214.945 875.045 215.468C874.523 215.972 873.879 216.224 873.113 216.224ZM879.791 221.656C879.007 221.656 878.232 221.535 877.467 221.292C876.702 221.049 876.076 220.713 875.591 220.284L877.187 217.176C877.523 217.475 877.906 217.708 878.335 217.876C878.783 218.044 879.222 218.128 879.651 218.128C880.267 218.128 880.752 217.979 881.107 217.68C881.48 217.4 881.816 216.924 882.115 216.252L882.899 214.404L883.235 213.928L888.639 200.936H892.839L886.035 216.924C885.55 218.137 884.99 219.089 884.355 219.78C883.739 220.471 883.048 220.956 882.283 221.236C881.536 221.516 880.706 221.656 879.791 221.656ZM882.367 216.588L875.647 200.936H880.155L885.363 213.536L882.367 216.588ZM913.913 200.712C915.108 200.712 916.163 200.955 917.077 201.44C918.011 201.907 918.739 202.635 919.261 203.624C919.803 204.595 920.073 205.845 920.073 207.376V216H915.705V208.048C915.705 206.835 915.453 205.939 914.949 205.36C914.445 204.781 913.736 204.492 912.821 204.492C912.187 204.492 911.617 204.641 911.113 204.94C910.609 205.22 910.217 205.649 909.937 206.228C909.657 206.807 909.517 207.544 909.517 208.44V216H905.149V208.048C905.149 206.835 904.897 205.939 904.393 205.36C903.908 204.781 903.208 204.492 902.293 204.492C901.659 204.492 901.089 204.641 900.585 204.94C900.081 205.22 899.689 205.649 899.409 206.228C899.129 206.807 898.989 207.544 898.989 208.44V216H894.621V200.936H898.793V205.052L898.009 203.848C898.532 202.821 899.269 202.047 900.221 201.524C901.192 200.983 902.293 200.712 903.525 200.712C904.907 200.712 906.111 201.067 907.137 201.776C908.183 202.467 908.873 203.531 909.209 204.968L907.669 204.548C908.173 203.372 908.976 202.439 910.077 201.748C911.197 201.057 912.476 200.712 913.913 200.712ZM923.989 216V195.224H928.357V216H923.989Z" fill="white"/>
<path d="M997.75 82V90C997.75 95.5228 1002.23 100 1007.75 100H1078.5C1084.02 100 1088.5 104.477 1088.5 110V170" stroke="#4D78FF"/>
<path d="M1020.3 216.224C1018.67 216.224 1017.23 215.897 1015.96 215.244C1014.69 214.572 1013.69 213.648 1012.96 212.472C1012.25 211.296 1011.9 209.961 1011.9 208.468C1011.9 206.956 1012.25 205.621 1012.96 204.464C1013.69 203.288 1014.69 202.373 1015.96 201.72C1017.23 201.048 1018.67 200.712 1020.3 200.712C1021.88 200.712 1023.26 201.048 1024.44 201.72C1025.62 202.373 1026.48 203.316 1027.04 204.548L1023.66 206.368C1023.26 205.659 1022.77 205.136 1022.17 204.8C1021.59 204.464 1020.96 204.296 1020.27 204.296C1019.52 204.296 1018.85 204.464 1018.25 204.8C1017.65 205.136 1017.18 205.612 1016.82 206.228C1016.49 206.844 1016.32 207.591 1016.32 208.468C1016.32 209.345 1016.49 210.092 1016.82 210.708C1017.18 211.324 1017.65 211.8 1018.25 212.136C1018.85 212.472 1019.52 212.64 1020.27 212.64C1020.96 212.64 1021.59 212.481 1022.17 212.164C1022.77 211.828 1023.26 211.296 1023.66 210.568L1027.04 212.416C1026.48 213.629 1025.62 214.572 1024.44 215.244C1023.26 215.897 1021.88 216.224 1020.3 216.224ZM1036.54 216.224C1034.93 216.224 1033.5 215.888 1032.25 215.216C1031.02 214.544 1030.04 213.629 1029.31 212.472C1028.6 211.296 1028.25 209.961 1028.25 208.468C1028.25 206.956 1028.6 205.621 1029.31 204.464C1030.04 203.288 1031.02 202.373 1032.25 201.72C1033.5 201.048 1034.93 200.712 1036.54 200.712C1038.12 200.712 1039.54 201.048 1040.79 201.72C1042.04 202.373 1043.02 203.279 1043.73 204.436C1044.44 205.593 1044.8 206.937 1044.8 208.468C1044.8 209.961 1044.44 211.296 1043.73 212.472C1043.02 213.629 1042.04 214.544 1040.79 215.216C1039.54 215.888 1038.12 216.224 1036.54 216.224ZM1036.54 212.64C1037.26 212.64 1037.92 212.472 1038.5 212.136C1039.07 211.8 1039.53 211.324 1039.87 210.708C1040.2 210.073 1040.37 209.327 1040.37 208.468C1040.37 207.591 1040.2 206.844 1039.87 206.228C1039.53 205.612 1039.07 205.136 1038.5 204.8C1037.92 204.464 1037.26 204.296 1036.54 204.296C1035.81 204.296 1035.15 204.464 1034.58 204.8C1034 205.136 1033.53 205.612 1033.18 206.228C1032.84 206.844 1032.67 207.591 1032.67 208.468C1032.67 209.327 1032.84 210.073 1033.18 210.708C1033.53 211.324 1034 211.8 1034.58 212.136C1035.15 212.472 1035.81 212.64 1036.54 212.64ZM1056.87 200.712C1058.07 200.712 1059.13 200.955 1060.06 201.44C1061.02 201.907 1061.76 202.635 1062.3 203.624C1062.84 204.595 1063.12 205.845 1063.12 207.376V216H1058.75V208.048C1058.75 206.835 1058.48 205.939 1057.94 205.36C1057.41 204.781 1056.67 204.492 1055.7 204.492C1055 204.492 1054.38 204.641 1053.82 204.94C1053.28 205.22 1052.85 205.659 1052.53 206.256C1052.23 206.853 1052.08 207.619 1052.08 208.552V216H1047.72V200.936H1051.89V205.108L1051.1 203.848C1051.64 202.84 1052.42 202.065 1053.43 201.524C1054.44 200.983 1055.58 200.712 1056.87 200.712ZM1067.61 216V200.6C1067.61 198.901 1068.11 197.548 1069.12 196.54C1070.13 195.513 1071.56 195 1073.43 195C1074.07 195 1074.67 195.065 1075.25 195.196C1075.85 195.327 1076.35 195.532 1076.76 195.812L1075.61 198.976C1075.37 198.808 1075.1 198.677 1074.8 198.584C1074.5 198.491 1074.19 198.444 1073.85 198.444C1073.22 198.444 1072.72 198.631 1072.37 199.004C1072.03 199.359 1071.86 199.9 1071.86 200.628V202.028L1071.97 203.904V216H1067.61ZM1065.28 204.632V201.272H1075.73V204.632H1065.28ZM1078.19 216V200.936H1082.56V216H1078.19ZM1080.37 198.836C1079.57 198.836 1078.92 198.603 1078.41 198.136C1077.91 197.669 1077.66 197.091 1077.66 196.4C1077.66 195.709 1077.91 195.131 1078.41 194.664C1078.92 194.197 1079.57 193.964 1080.37 193.964C1081.18 193.964 1081.83 194.188 1082.33 194.636C1082.84 195.065 1083.09 195.625 1083.09 196.316C1083.09 197.044 1082.84 197.651 1082.33 198.136C1081.85 198.603 1081.2 198.836 1080.37 198.836ZM1093.68 221.656C1092.26 221.656 1090.89 221.479 1089.57 221.124C1088.26 220.788 1087.17 220.275 1086.29 219.584L1088.03 216.448C1088.66 216.971 1089.46 217.381 1090.43 217.68C1091.42 217.997 1092.39 218.156 1093.35 218.156C1094.9 218.156 1096.02 217.811 1096.71 217.12C1097.42 216.429 1097.77 215.403 1097.77 214.04V211.772L1098.05 207.992L1097.99 204.184V200.936H1102.14V213.48C1102.14 216.28 1101.41 218.343 1099.95 219.668C1098.5 220.993 1096.41 221.656 1093.68 221.656ZM1093.01 215.272C1091.61 215.272 1090.34 214.973 1089.2 214.376C1088.08 213.76 1087.18 212.911 1086.49 211.828C1085.81 210.727 1085.48 209.448 1085.48 207.992C1085.48 206.517 1085.81 205.239 1086.49 204.156C1087.18 203.055 1088.08 202.205 1089.2 201.608C1090.34 201.011 1091.61 200.712 1093.01 200.712C1094.28 200.712 1095.4 200.973 1096.37 201.496C1097.34 202 1098.1 202.793 1098.64 203.876C1099.18 204.94 1099.45 206.312 1099.45 207.992C1099.45 209.653 1099.18 211.025 1098.64 212.108C1098.1 213.172 1097.34 213.965 1096.37 214.488C1095.4 215.011 1094.28 215.272 1093.01 215.272ZM1093.88 211.688C1094.64 211.688 1095.32 211.539 1095.92 211.24C1096.52 210.923 1096.99 210.484 1097.32 209.924C1097.66 209.364 1097.83 208.72 1097.83 207.992C1097.83 207.245 1097.66 206.601 1097.32 206.06C1096.99 205.5 1096.52 205.071 1095.92 204.772C1095.32 204.455 1094.64 204.296 1093.88 204.296C1093.11 204.296 1092.43 204.455 1091.83 204.772C1091.24 205.071 1090.76 205.5 1090.41 206.06C1090.07 206.601 1089.9 207.245 1089.9 207.992C1089.9 208.72 1090.07 209.364 1090.41 209.924C1090.76 210.484 1091.24 210.923 1091.83 211.24C1092.43 211.539 1093.11 211.688 1093.88 211.688ZM1107.86 216.224C1107.11 216.224 1106.46 215.972 1105.92 215.468C1105.4 214.945 1105.14 214.283 1105.14 213.48C1105.14 212.677 1105.4 212.033 1105.92 211.548C1106.46 211.044 1107.11 210.792 1107.86 210.792C1108.62 210.792 1109.26 211.044 1109.79 211.548C1110.31 212.033 1110.57 212.677 1110.57 213.48C1110.57 214.283 1110.31 214.945 1109.79 215.468C1109.26 215.972 1108.62 216.224 1107.86 216.224ZM1114.53 221.656C1113.75 221.656 1112.97 221.535 1112.21 221.292C1111.44 221.049 1110.82 220.713 1110.33 220.284L1111.93 217.176C1112.27 217.475 1112.65 217.708 1113.08 217.876C1113.53 218.044 1113.96 218.128 1114.39 218.128C1115.01 218.128 1115.49 217.979 1115.85 217.68C1116.22 217.4 1116.56 216.924 1116.86 216.252L1117.64 214.404L1117.98 213.928L1123.38 200.936H1127.58L1120.78 216.924C1120.29 218.137 1119.73 219.089 1119.1 219.78C1118.48 220.471 1117.79 220.956 1117.03 221.236C1116.28 221.516 1115.45 221.656 1114.53 221.656ZM1117.11 216.588L1110.39 200.936H1114.9L1120.11 213.536L1117.11 216.588ZM1148.66 200.712C1149.85 200.712 1150.9 200.955 1151.82 201.44C1152.75 201.907 1153.48 202.635 1154 203.624C1154.54 204.595 1154.82 205.845 1154.82 207.376V216H1150.45V208.048C1150.45 206.835 1150.2 205.939 1149.69 205.36C1149.19 204.781 1148.48 204.492 1147.56 204.492C1146.93 204.492 1146.36 204.641 1145.86 204.94C1145.35 205.22 1144.96 205.649 1144.68 206.228C1144.4 206.807 1144.26 207.544 1144.26 208.44V216H1139.89V208.048C1139.89 206.835 1139.64 205.939 1139.14 205.36C1138.65 204.781 1137.95 204.492 1137.04 204.492C1136.4 204.492 1135.83 204.641 1135.33 204.94C1134.82 205.22 1134.43 205.649 1134.15 206.228C1133.87 206.807 1133.73 207.544 1133.73 208.44V216H1129.36V200.936H1133.54V205.052L1132.75 203.848C1133.27 202.821 1134.01 202.047 1134.96 201.524C1135.93 200.983 1137.04 200.712 1138.27 200.712C1139.65 200.712 1140.85 201.067 1141.88 201.776C1142.92 202.467 1143.62 203.531 1143.95 204.968L1142.41 204.548C1142.92 203.372 1143.72 202.439 1144.82 201.748C1145.94 201.057 1147.22 200.712 1148.66 200.712ZM1158.73 216V195.224H1163.1V216H1158.73Z" fill="white"/>
<path d="M997.75 82V90C997.75 95.5228 1002.23 100 1007.75 100L1348.5 100C1354.02 100 1358.5 104.477 1358.5 110V170" stroke="#4DC4FF"/>
<path d="M1248.02 216V200.936H1252.38V216H1248.02ZM1250.2 198.836C1249.4 198.836 1248.74 198.603 1248.24 198.136C1247.74 197.669 1247.48 197.091 1247.48 196.4C1247.48 195.709 1247.74 195.131 1248.24 194.664C1248.74 194.197 1249.4 193.964 1250.2 193.964C1251 193.964 1251.66 194.188 1252.16 194.636C1252.66 195.065 1252.92 195.625 1252.92 196.316C1252.92 197.044 1252.66 197.651 1252.16 198.136C1251.67 198.603 1251.02 198.836 1250.2 198.836ZM1265.59 200.712C1266.79 200.712 1267.85 200.955 1268.79 201.44C1269.74 201.907 1270.48 202.635 1271.03 203.624C1271.57 204.595 1271.84 205.845 1271.84 207.376V216H1267.47V208.048C1267.47 206.835 1267.2 205.939 1266.66 205.36C1266.14 204.781 1265.39 204.492 1264.42 204.492C1263.73 204.492 1263.1 204.641 1262.54 204.94C1262 205.22 1261.57 205.659 1261.25 206.256C1260.96 206.853 1260.81 207.619 1260.81 208.552V216H1256.44V200.936H1260.61V205.108L1259.83 203.848C1260.37 202.84 1261.14 202.065 1262.15 201.524C1263.16 200.983 1264.31 200.712 1265.59 200.712ZM1281.96 216.224C1280.18 216.224 1278.8 215.776 1277.81 214.88C1276.82 213.965 1276.33 212.612 1276.33 210.82V197.604H1280.7V210.764C1280.7 211.399 1280.87 211.893 1281.2 212.248C1281.54 212.584 1281.99 212.752 1282.57 212.752C1283.26 212.752 1283.85 212.565 1284.34 212.192L1285.51 215.272C1285.07 215.589 1284.52 215.832 1283.89 216C1283.27 216.149 1282.63 216.224 1281.96 216.224ZM1274.01 204.632V201.272H1284.45V204.632H1274.01ZM1294.98 216.224C1293.26 216.224 1291.75 215.888 1290.44 215.216C1289.15 214.544 1288.15 213.629 1287.44 212.472C1286.74 211.296 1286.38 209.961 1286.38 208.468C1286.38 206.956 1286.73 205.621 1287.42 204.464C1288.13 203.288 1289.09 202.373 1290.3 201.72C1291.51 201.048 1292.89 200.712 1294.42 200.712C1295.89 200.712 1297.22 201.029 1298.39 201.664C1299.59 202.28 1300.53 203.176 1301.22 204.352C1301.91 205.509 1302.26 206.9 1302.26 208.524C1302.26 208.692 1302.25 208.888 1302.23 209.112C1302.21 209.317 1302.19 209.513 1302.17 209.7H1289.94V207.152H1299.88L1298.2 207.908C1298.2 207.124 1298.04 206.443 1297.72 205.864C1297.4 205.285 1296.96 204.837 1296.4 204.52C1295.84 204.184 1295.19 204.016 1294.44 204.016C1293.7 204.016 1293.04 204.184 1292.46 204.52C1291.9 204.837 1291.46 205.295 1291.14 205.892C1290.82 206.471 1290.66 207.161 1290.66 207.964V208.636C1290.66 209.457 1290.84 210.185 1291.2 210.82C1291.57 211.436 1292.08 211.912 1292.74 212.248C1293.41 212.565 1294.19 212.724 1295.09 212.724C1295.89 212.724 1296.59 212.603 1297.19 212.36C1297.8 212.117 1298.36 211.753 1298.87 211.268L1301.19 213.788C1300.5 214.572 1299.63 215.179 1298.59 215.608C1297.54 216.019 1296.34 216.224 1294.98 216.224ZM1312.25 221.656C1310.83 221.656 1309.46 221.479 1308.13 221.124C1306.83 220.788 1305.73 220.275 1304.86 219.584L1306.59 216.448C1307.23 216.971 1308.03 217.381 1309 217.68C1309.99 217.997 1310.96 218.156 1311.91 218.156C1313.46 218.156 1314.58 217.811 1315.27 217.12C1315.98 216.429 1316.34 215.403 1316.34 214.04V211.772L1316.62 207.992L1316.56 204.184V200.936H1320.7V213.48C1320.7 216.28 1319.98 218.343 1318.52 219.668C1317.06 220.993 1314.97 221.656 1312.25 221.656ZM1311.58 215.272C1310.18 215.272 1308.91 214.973 1307.77 214.376C1306.65 213.76 1305.74 212.911 1305.05 211.828C1304.38 210.727 1304.04 209.448 1304.04 207.992C1304.04 206.517 1304.38 205.239 1305.05 204.156C1305.74 203.055 1306.65 202.205 1307.77 201.608C1308.91 201.011 1310.18 200.712 1311.58 200.712C1312.85 200.712 1313.97 200.973 1314.94 201.496C1315.91 202 1316.66 202.793 1317.2 203.876C1317.75 204.94 1318.02 206.312 1318.02 207.992C1318.02 209.653 1317.75 211.025 1317.2 212.108C1316.66 213.172 1315.91 213.965 1314.94 214.488C1313.97 215.011 1312.85 215.272 1311.58 215.272ZM1312.44 211.688C1313.21 211.688 1313.89 211.539 1314.49 211.24C1315.09 210.923 1315.55 210.484 1315.89 209.924C1316.22 209.364 1316.39 208.72 1316.39 207.992C1316.39 207.245 1316.22 206.601 1315.89 206.06C1315.55 205.5 1315.09 205.071 1314.49 204.772C1313.89 204.455 1313.21 204.296 1312.44 204.296C1311.68 204.296 1311 204.455 1310.4 204.772C1309.8 205.071 1309.33 205.5 1308.97 206.06C1308.64 206.601 1308.47 207.245 1308.47 207.992C1308.47 208.72 1308.64 209.364 1308.97 209.924C1309.33 210.484 1309.8 210.923 1310.4 211.24C1311 211.539 1311.68 211.688 1312.44 211.688ZM1324.77 216V200.936H1328.94V205.192L1328.35 203.96C1328.8 202.896 1329.52 202.093 1330.51 201.552C1331.5 200.992 1332.7 200.712 1334.12 200.712V204.744C1333.94 204.725 1333.77 204.716 1333.62 204.716C1333.47 204.697 1333.31 204.688 1333.14 204.688C1331.95 204.688 1330.98 205.033 1330.23 205.724C1329.5 206.396 1329.14 207.451 1329.14 208.888V216H1324.77ZM1344.97 216V213.06L1344.69 212.416V207.152C1344.69 206.219 1344.41 205.491 1343.83 204.968C1343.27 204.445 1342.4 204.184 1341.22 204.184C1340.42 204.184 1339.63 204.315 1338.84 204.576C1338.08 204.819 1337.42 205.155 1336.88 205.584L1335.31 202.532C1336.14 201.953 1337.13 201.505 1338.28 201.188C1339.44 200.871 1340.62 200.712 1341.81 200.712C1344.11 200.712 1345.89 201.253 1347.16 202.336C1348.43 203.419 1349.06 205.108 1349.06 207.404V216H1344.97ZM1340.38 216.224C1339.21 216.224 1338.2 216.028 1337.36 215.636C1336.52 215.225 1335.87 214.675 1335.43 213.984C1334.98 213.293 1334.75 212.519 1334.75 211.66C1334.75 210.764 1334.97 209.98 1335.4 209.308C1335.85 208.636 1336.55 208.113 1337.5 207.74C1338.45 207.348 1339.69 207.152 1341.22 207.152H1345.23V209.7H1341.7C1340.67 209.7 1339.96 209.868 1339.57 210.204C1339.2 210.54 1339.01 210.96 1339.01 211.464C1339.01 212.024 1339.23 212.472 1339.65 212.808C1340.1 213.125 1340.71 213.284 1341.47 213.284C1342.2 213.284 1342.86 213.116 1343.43 212.78C1344.01 212.425 1344.43 211.912 1344.69 211.24L1345.37 213.256C1345.05 214.227 1344.47 214.964 1343.63 215.468C1342.79 215.972 1341.71 216.224 1340.38 216.224ZM1359.18 216.224C1357.4 216.224 1356.02 215.776 1355.03 214.88C1354.04 213.965 1353.55 212.612 1353.55 210.82V197.604H1357.92V210.764C1357.92 211.399 1358.08 211.893 1358.42 212.248C1358.76 212.584 1359.21 212.752 1359.79 212.752C1360.48 212.752 1361.07 212.565 1361.56 212.192L1362.73 215.272C1362.28 215.589 1361.74 215.832 1361.11 216C1360.49 216.149 1359.85 216.224 1359.18 216.224ZM1351.22 204.632V201.272H1361.67V204.632H1351.22ZM1365.18 216V200.936H1369.55V216H1365.18ZM1367.37 198.836C1366.57 198.836 1365.91 198.603 1365.41 198.136C1364.9 197.669 1364.65 197.091 1364.65 196.4C1364.65 195.709 1364.9 195.131 1365.41 194.664C1365.91 194.197 1366.57 193.964 1367.37 193.964C1368.17 193.964 1368.82 194.188 1369.33 194.636C1369.83 195.065 1370.08 195.625 1370.08 196.316C1370.08 197.044 1369.83 197.651 1369.33 198.136C1368.84 198.603 1368.19 198.836 1367.37 198.836ZM1380.77 216.224C1379.17 216.224 1377.74 215.888 1376.49 215.216C1375.26 214.544 1374.28 213.629 1373.55 212.472C1372.84 211.296 1372.49 209.961 1372.49 208.468C1372.49 206.956 1372.84 205.621 1373.55 204.464C1374.28 203.288 1375.26 202.373 1376.49 201.72C1377.74 201.048 1379.17 200.712 1380.77 200.712C1382.36 200.712 1383.78 201.048 1385.03 201.72C1386.28 202.373 1387.26 203.279 1387.97 204.436C1388.68 205.593 1389.03 206.937 1389.03 208.468C1389.03 209.961 1388.68 211.296 1387.97 212.472C1387.26 213.629 1386.28 214.544 1385.03 215.216C1383.78 215.888 1382.36 216.224 1380.77 216.224ZM1380.77 212.64C1381.5 212.64 1382.16 212.472 1382.73 212.136C1383.31 211.8 1383.77 211.324 1384.11 210.708C1384.44 210.073 1384.61 209.327 1384.61 208.468C1384.61 207.591 1384.44 206.844 1384.11 206.228C1383.77 205.612 1383.31 205.136 1382.73 204.8C1382.16 204.464 1381.5 204.296 1380.77 204.296C1380.05 204.296 1379.39 204.464 1378.81 204.8C1378.24 205.136 1377.77 205.612 1377.41 206.228C1377.08 206.844 1376.91 207.591 1376.91 208.468C1376.91 209.327 1377.08 210.073 1377.41 210.708C1377.77 211.324 1378.24 211.8 1378.81 212.136C1379.39 212.472 1380.05 212.64 1380.77 212.64ZM1401.11 200.712C1402.3 200.712 1403.37 200.955 1404.3 201.44C1405.25 201.907 1406 202.635 1406.54 203.624C1407.08 204.595 1407.35 205.845 1407.35 207.376V216H1402.99V208.048C1402.99 206.835 1402.71 205.939 1402.17 205.36C1401.65 204.781 1400.9 204.492 1399.93 204.492C1399.24 204.492 1398.62 204.641 1398.06 204.94C1397.52 205.22 1397.09 205.659 1396.77 206.256C1396.47 206.853 1396.32 207.619 1396.32 208.552V216H1391.95V200.936H1396.13V205.108L1395.34 203.848C1395.88 202.84 1396.66 202.065 1397.67 201.524C1398.67 200.983 1399.82 200.712 1401.11 200.712ZM1412.96 216.224C1412.22 216.224 1411.57 215.972 1411.03 215.468C1410.51 214.945 1410.25 214.283 1410.25 213.48C1410.25 212.677 1410.51 212.033 1411.03 211.548C1411.57 211.044 1412.22 210.792 1412.96 210.792C1413.73 210.792 1414.37 211.044 1414.9 211.548C1415.42 212.033 1415.68 212.677 1415.68 213.48C1415.68 214.283 1415.42 214.945 1414.9 215.468C1414.37 215.972 1413.73 216.224 1412.96 216.224ZM1419.64 221.656C1418.86 221.656 1418.08 221.535 1417.32 221.292C1416.55 221.049 1415.93 220.713 1415.44 220.284L1417.04 217.176C1417.37 217.475 1417.76 217.708 1418.19 217.876C1418.63 218.044 1419.07 218.128 1419.5 218.128C1420.12 218.128 1420.6 217.979 1420.96 217.68C1421.33 217.4 1421.67 216.924 1421.97 216.252L1422.75 214.404L1423.09 213.928L1428.49 200.936H1432.69L1425.89 216.924C1425.4 218.137 1424.84 219.089 1424.21 219.78C1423.59 220.471 1422.9 220.956 1422.13 221.236C1421.39 221.516 1420.56 221.656 1419.64 221.656ZM1422.22 216.588L1415.5 200.936H1420.01L1425.21 213.536L1422.22 216.588ZM1453.77 200.712C1454.96 200.712 1456.01 200.955 1456.93 201.44C1457.86 201.907 1458.59 202.635 1459.11 203.624C1459.65 204.595 1459.93 205.845 1459.93 207.376V216H1455.56V208.048C1455.56 206.835 1455.31 205.939 1454.8 205.36C1454.3 204.781 1453.59 204.492 1452.67 204.492C1452.04 204.492 1451.47 204.641 1450.97 204.94C1450.46 205.22 1450.07 205.649 1449.79 206.228C1449.51 206.807 1449.37 207.544 1449.37 208.44V216H1445V208.048C1445 206.835 1444.75 205.939 1444.25 205.36C1443.76 204.781 1443.06 204.492 1442.15 204.492C1441.51 204.492 1440.94 204.641 1440.44 204.94C1439.93 205.22 1439.54 205.649 1439.26 206.228C1438.98 206.807 1438.84 207.544 1438.84 208.44V216H1434.47V200.936H1438.65V205.052L1437.86 203.848C1438.38 202.821 1439.12 202.047 1440.07 201.524C1441.04 200.983 1442.15 200.712 1443.38 200.712C1444.76 200.712 1445.96 201.067 1446.99 201.776C1448.03 202.467 1448.73 203.531 1449.06 204.968L1447.52 204.548C1448.03 203.372 1448.83 202.439 1449.93 201.748C1451.05 201.057 1452.33 200.712 1453.77 200.712ZM1463.84 216V195.224H1468.21V216H1463.84Z" fill="white"/>
<path d="M997.75 82V90C997.75 95.5228 1002.23 100 1007.75 100L1637.5 100C1643.02 100 1647.5 104.477 1647.5 110V170" stroke="#4DB5FF"/>
<path d="M1572.31 200.712C1573.5 200.712 1574.56 200.955 1575.47 201.44C1576.41 201.907 1577.13 202.635 1577.66 203.624C1578.2 204.595 1578.47 205.845 1578.47 207.376V216H1574.1V208.048C1574.1 206.835 1573.85 205.939 1573.34 205.36C1572.84 204.781 1572.13 204.492 1571.22 204.492C1570.58 204.492 1570.01 204.641 1569.51 204.94C1569 205.22 1568.61 205.649 1568.33 206.228C1568.05 206.807 1567.91 207.544 1567.91 208.44V216H1563.54V208.048C1563.54 206.835 1563.29 205.939 1562.79 205.36C1562.3 204.781 1561.6 204.492 1560.69 204.492C1560.05 204.492 1559.48 204.641 1558.98 204.94C1558.48 205.22 1558.08 205.649 1557.8 206.228C1557.52 206.807 1557.38 207.544 1557.38 208.44V216H1553.02V200.936H1557.19V205.052L1556.4 203.848C1556.93 202.821 1557.66 202.047 1558.62 201.524C1559.59 200.983 1560.69 200.712 1561.92 200.712C1563.3 200.712 1564.51 201.067 1565.53 201.776C1566.58 202.467 1567.27 203.531 1567.6 204.968L1566.06 204.548C1566.57 203.372 1567.37 202.439 1568.47 201.748C1569.59 201.057 1570.87 200.712 1572.31 200.712ZM1589.97 216.224C1588.25 216.224 1586.74 215.888 1585.43 215.216C1584.14 214.544 1583.15 213.629 1582.44 212.472C1581.73 211.296 1581.37 209.961 1581.37 208.468C1581.37 206.956 1581.72 205.621 1582.41 204.464C1583.12 203.288 1584.08 202.373 1585.29 201.72C1586.51 201.048 1587.88 200.712 1589.41 200.712C1590.88 200.712 1592.21 201.029 1593.38 201.664C1594.58 202.28 1595.52 203.176 1596.21 204.352C1596.9 205.509 1597.25 206.9 1597.25 208.524C1597.25 208.692 1597.24 208.888 1597.22 209.112C1597.2 209.317 1597.18 209.513 1597.16 209.7H1584.93V207.152H1594.87L1593.19 207.908C1593.19 207.124 1593.03 206.443 1592.71 205.864C1592.4 205.285 1591.96 204.837 1591.4 204.52C1590.84 204.184 1590.18 204.016 1589.44 204.016C1588.69 204.016 1588.03 204.184 1587.45 204.52C1586.89 204.837 1586.45 205.295 1586.13 205.892C1585.82 206.471 1585.66 207.161 1585.66 207.964V208.636C1585.66 209.457 1585.83 210.185 1586.19 210.82C1586.56 211.436 1587.08 211.912 1587.73 212.248C1588.4 212.565 1589.18 212.724 1590.08 212.724C1590.88 212.724 1591.58 212.603 1592.18 212.36C1592.8 212.117 1593.36 211.753 1593.86 211.268L1596.18 213.788C1595.49 214.572 1594.63 215.179 1593.58 215.608C1592.54 216.019 1591.33 216.224 1589.97 216.224ZM1605.22 216.224C1603.94 216.224 1602.7 216.075 1601.5 215.776C1600.32 215.459 1599.39 215.067 1598.7 214.6L1600.16 211.464C1600.85 211.893 1601.66 212.248 1602.59 212.528C1603.54 212.789 1604.48 212.92 1605.39 212.92C1606.4 212.92 1607.11 212.799 1607.52 212.556C1607.95 212.313 1608.16 211.977 1608.16 211.548C1608.16 211.193 1608 210.932 1607.66 210.764C1607.34 210.577 1606.91 210.437 1606.37 210.344C1605.83 210.251 1605.23 210.157 1604.58 210.064C1603.95 209.971 1603.3 209.849 1602.65 209.7C1602 209.532 1601.4 209.289 1600.86 208.972C1600.32 208.655 1599.88 208.225 1599.54 207.684C1599.22 207.143 1599.06 206.443 1599.06 205.584C1599.06 204.632 1599.34 203.792 1599.88 203.064C1600.44 202.336 1601.24 201.767 1602.28 201.356C1603.33 200.927 1604.58 200.712 1606.04 200.712C1607.06 200.712 1608.11 200.824 1609.17 201.048C1610.24 201.272 1611.12 201.599 1611.83 202.028L1610.38 205.136C1609.65 204.707 1608.91 204.417 1608.16 204.268C1607.44 204.1 1606.73 204.016 1606.04 204.016C1605.07 204.016 1604.36 204.147 1603.91 204.408C1603.46 204.669 1603.24 205.005 1603.24 205.416C1603.24 205.789 1603.4 206.069 1603.71 206.256C1604.05 206.443 1604.49 206.592 1605.03 206.704C1605.57 206.816 1606.16 206.919 1606.79 207.012C1607.45 207.087 1608.1 207.208 1608.75 207.376C1609.41 207.544 1609.99 207.787 1610.52 208.104C1611.06 208.403 1611.5 208.823 1611.83 209.364C1612.17 209.887 1612.34 210.577 1612.34 211.436C1612.34 212.369 1612.06 213.2 1611.5 213.928C1610.94 214.637 1610.12 215.197 1609.06 215.608C1608.02 216.019 1606.74 216.224 1605.22 216.224ZM1620.1 216.224C1618.81 216.224 1617.57 216.075 1616.38 215.776C1615.2 215.459 1614.27 215.067 1613.58 214.6L1615.03 211.464C1615.72 211.893 1616.53 212.248 1617.47 212.528C1618.42 212.789 1619.35 212.92 1620.27 212.92C1621.28 212.92 1621.98 212.799 1622.4 212.556C1622.82 212.313 1623.04 211.977 1623.04 211.548C1623.04 211.193 1622.87 210.932 1622.54 210.764C1622.22 210.577 1621.79 210.437 1621.25 210.344C1620.71 210.251 1620.11 210.157 1619.46 210.064C1618.82 209.971 1618.18 209.849 1617.52 209.7C1616.87 209.532 1616.27 209.289 1615.73 208.972C1615.19 208.655 1614.75 208.225 1614.42 207.684C1614.1 207.143 1613.94 206.443 1613.94 205.584C1613.94 204.632 1614.21 203.792 1614.75 203.064C1615.31 202.336 1616.11 201.767 1617.16 201.356C1618.2 200.927 1619.46 200.712 1620.91 200.712C1621.94 200.712 1622.98 200.824 1624.05 201.048C1625.11 201.272 1626 201.599 1626.71 202.028L1625.25 205.136C1624.52 204.707 1623.79 204.417 1623.04 204.268C1622.31 204.1 1621.6 204.016 1620.91 204.016C1619.94 204.016 1619.23 204.147 1618.78 204.408C1618.34 204.669 1618.11 205.005 1618.11 205.416C1618.11 205.789 1618.27 206.069 1618.59 206.256C1618.92 206.443 1619.36 206.592 1619.9 206.704C1620.44 206.816 1621.03 206.919 1621.67 207.012C1622.32 207.087 1622.97 207.208 1623.63 207.376C1624.28 207.544 1624.87 207.787 1625.39 208.104C1625.93 208.403 1626.37 208.823 1626.71 209.364C1627.04 209.887 1627.21 210.577 1627.21 211.436C1627.21 212.369 1626.93 213.2 1626.37 213.928C1625.81 214.637 1625 215.197 1623.94 215.608C1622.89 216.019 1621.61 216.224 1620.1 216.224ZM1639.15 216V213.06L1638.87 212.416V207.152C1638.87 206.219 1638.58 205.491 1638 204.968C1637.44 204.445 1636.57 204.184 1635.39 204.184C1634.59 204.184 1633.8 204.315 1633.01 204.576C1632.25 204.819 1631.6 205.155 1631.05 205.584L1629.49 202.532C1630.31 201.953 1631.3 201.505 1632.45 201.188C1633.61 200.871 1634.79 200.712 1635.98 200.712C1638.28 200.712 1640.06 201.253 1641.33 202.336C1642.6 203.419 1643.23 205.108 1643.23 207.404V216H1639.15ZM1634.55 216.224C1633.38 216.224 1632.37 216.028 1631.53 215.636C1630.69 215.225 1630.05 214.675 1629.6 213.984C1629.15 213.293 1628.93 212.519 1628.93 211.66C1628.93 210.764 1629.14 209.98 1629.57 209.308C1630.02 208.636 1630.72 208.113 1631.67 207.74C1632.62 207.348 1633.86 207.152 1635.39 207.152H1639.4V209.7H1635.87C1634.84 209.7 1634.13 209.868 1633.74 210.204C1633.37 210.54 1633.18 210.96 1633.18 211.464C1633.18 212.024 1633.4 212.472 1633.83 212.808C1634.27 213.125 1634.88 213.284 1635.65 213.284C1636.37 213.284 1637.03 213.116 1637.61 212.78C1638.19 212.425 1638.61 211.912 1638.87 211.24L1639.54 213.256C1639.22 214.227 1638.64 214.964 1637.8 215.468C1636.96 215.972 1635.88 216.224 1634.55 216.224ZM1654.38 221.656C1652.96 221.656 1651.59 221.479 1650.27 221.124C1648.96 220.788 1647.87 220.275 1646.99 219.584L1648.73 216.448C1649.36 216.971 1650.16 217.381 1651.13 217.68C1652.12 217.997 1653.09 218.156 1654.05 218.156C1655.59 218.156 1656.71 217.811 1657.41 217.12C1658.11 216.429 1658.47 215.403 1658.47 214.04V211.772L1658.75 207.992L1658.69 204.184V200.936H1662.84V213.48C1662.84 216.28 1662.11 218.343 1660.65 219.668C1659.2 220.993 1657.11 221.656 1654.38 221.656ZM1653.71 215.272C1652.31 215.272 1651.04 214.973 1649.9 214.376C1648.78 213.76 1647.88 212.911 1647.19 211.828C1646.51 210.727 1646.18 209.448 1646.18 207.992C1646.18 206.517 1646.51 205.239 1647.19 204.156C1647.88 203.055 1648.78 202.205 1649.9 201.608C1651.04 201.011 1652.31 200.712 1653.71 200.712C1654.98 200.712 1656.1 200.973 1657.07 201.496C1658.04 202 1658.8 202.793 1659.34 203.876C1659.88 204.94 1660.15 206.312 1660.15 207.992C1660.15 209.653 1659.88 211.025 1659.34 212.108C1658.8 213.172 1658.04 213.965 1657.07 214.488C1656.1 215.011 1654.98 215.272 1653.71 215.272ZM1654.58 211.688C1655.34 211.688 1656.02 211.539 1656.62 211.24C1657.22 210.923 1657.69 210.484 1658.02 209.924C1658.36 209.364 1658.53 208.72 1658.53 207.992C1658.53 207.245 1658.36 206.601 1658.02 206.06C1657.69 205.5 1657.22 205.071 1656.62 204.772C1656.02 204.455 1655.34 204.296 1654.58 204.296C1653.81 204.296 1653.13 204.455 1652.53 204.772C1651.94 205.071 1651.46 205.5 1651.11 206.06C1650.77 206.601 1650.6 207.245 1650.6 207.992C1650.6 208.72 1650.77 209.364 1651.11 209.924C1651.46 210.484 1651.94 210.923 1652.53 211.24C1653.13 211.539 1653.81 211.688 1654.58 211.688ZM1674.38 216.224C1672.66 216.224 1671.15 215.888 1669.84 215.216C1668.55 214.544 1667.56 213.629 1666.85 212.472C1666.14 211.296 1665.78 209.961 1665.78 208.468C1665.78 206.956 1666.13 205.621 1666.82 204.464C1667.53 203.288 1668.49 202.373 1669.7 201.72C1670.92 201.048 1672.29 200.712 1673.82 200.712C1675.29 200.712 1676.62 201.029 1677.79 201.664C1678.99 202.28 1679.93 203.176 1680.62 204.352C1681.31 205.509 1681.66 206.9 1681.66 208.524C1681.66 208.692 1681.65 208.888 1681.63 209.112C1681.61 209.317 1681.59 209.513 1681.57 209.7H1669.34V207.152H1679.28L1677.6 207.908C1677.6 207.124 1677.44 206.443 1677.12 205.864C1676.81 205.285 1676.37 204.837 1675.81 204.52C1675.25 204.184 1674.59 204.016 1673.85 204.016C1673.1 204.016 1672.44 204.184 1671.86 204.52C1671.3 204.837 1670.86 205.295 1670.54 205.892C1670.23 206.471 1670.07 207.161 1670.07 207.964V208.636C1670.07 209.457 1670.24 210.185 1670.6 210.82C1670.97 211.436 1671.49 211.912 1672.14 212.248C1672.81 212.565 1673.59 212.724 1674.49 212.724C1675.29 212.724 1675.99 212.603 1676.59 212.36C1677.21 212.117 1677.77 211.753 1678.27 211.268L1680.59 213.788C1679.9 214.572 1679.04 215.179 1677.99 215.608C1676.95 216.019 1675.74 216.224 1674.38 216.224ZM1686.22 216.224C1685.47 216.224 1684.83 215.972 1684.29 215.468C1683.76 214.945 1683.5 214.283 1683.5 213.48C1683.5 212.677 1683.76 212.033 1684.29 211.548C1684.83 211.044 1685.47 210.792 1686.22 210.792C1686.98 210.792 1687.63 211.044 1688.15 211.548C1688.67 212.033 1688.93 212.677 1688.93 213.48C1688.93 214.283 1688.67 214.945 1688.15 215.468C1687.63 215.972 1686.98 216.224 1686.22 216.224ZM1692.9 221.656C1692.11 221.656 1691.34 221.535 1690.57 221.292C1689.81 221.049 1689.18 220.713 1688.7 220.284L1690.29 217.176C1690.63 217.475 1691.01 217.708 1691.44 217.876C1691.89 218.044 1692.33 218.128 1692.76 218.128C1693.37 218.128 1693.86 217.979 1694.21 217.68C1694.59 217.4 1694.92 216.924 1695.22 216.252L1696 214.404L1696.34 213.928L1701.74 200.936H1705.94L1699.14 216.924C1698.66 218.137 1698.1 219.089 1697.46 219.78C1696.84 220.471 1696.15 220.956 1695.39 221.236C1694.64 221.516 1693.81 221.656 1692.9 221.656ZM1695.47 216.588L1688.75 200.936H1693.26L1698.47 213.536L1695.47 216.588ZM1727.02 200.712C1728.21 200.712 1729.27 200.955 1730.18 201.44C1731.12 201.907 1731.84 202.635 1732.37 203.624C1732.91 204.595 1733.18 205.845 1733.18 207.376V216H1728.81V208.048C1728.81 206.835 1728.56 205.939 1728.05 205.36C1727.55 204.781 1726.84 204.492 1725.93 204.492C1725.29 204.492 1724.72 204.641 1724.22 204.94C1723.71 205.22 1723.32 205.649 1723.04 206.228C1722.76 206.807 1722.62 207.544 1722.62 208.44V216H1718.25V208.048C1718.25 206.835 1718 205.939 1717.5 205.36C1717.01 204.781 1716.31 204.492 1715.4 204.492C1714.76 204.492 1714.19 204.641 1713.69 204.94C1713.19 205.22 1712.79 205.649 1712.51 206.228C1712.23 206.807 1712.09 207.544 1712.09 208.44V216H1707.73V200.936H1711.9V205.052L1711.11 203.848C1711.64 202.821 1712.37 202.047 1713.33 201.524C1714.3 200.983 1715.4 200.712 1716.63 200.712C1718.01 200.712 1719.22 201.067 1720.24 201.776C1721.29 202.467 1721.98 203.531 1722.31 204.968L1720.77 204.548C1721.28 203.372 1722.08 202.439 1723.18 201.748C1724.3 201.057 1725.58 200.712 1727.02 200.712ZM1737.09 216V195.224H1741.46V216H1737.09Z" fill="white"/>
<path d="M997.75 82V90C997.75 95.5228 1002.23 100 1007.75 100L1926 100C1931.52 100 1936 104.477 1936 110V170" stroke="#4DA6FF"/>
<path d="M1834.92 216.224C1833.65 216.224 1832.54 215.944 1831.59 215.384C1830.64 214.824 1829.89 213.975 1829.35 212.836C1828.83 211.679 1828.56 210.223 1828.56 208.468C1828.56 206.695 1828.82 205.239 1829.32 204.1C1829.82 202.961 1830.55 202.112 1831.5 201.552C1832.46 200.992 1833.59 200.712 1834.92 200.712C1836.34 200.712 1837.61 201.039 1838.73 201.692C1839.87 202.327 1840.76 203.223 1841.42 204.38C1842.09 205.537 1842.42 206.9 1842.42 208.468C1842.42 210.055 1842.09 211.427 1841.42 212.584C1840.76 213.741 1839.87 214.637 1838.73 215.272C1837.61 215.907 1836.34 216.224 1834.92 216.224ZM1826.02 221.432V200.936H1830.19V204.016L1830.1 208.496L1830.38 212.948V221.432H1826.02ZM1834.16 212.64C1834.89 212.64 1835.54 212.472 1836.1 212.136C1836.67 211.8 1837.13 211.324 1837.47 210.708C1837.82 210.073 1838 209.327 1838 208.468C1838 207.591 1837.82 206.844 1837.47 206.228C1837.13 205.612 1836.67 205.136 1836.1 204.8C1835.54 204.464 1834.89 204.296 1834.16 204.296C1833.44 204.296 1832.78 204.464 1832.2 204.8C1831.63 205.136 1831.17 205.612 1830.83 206.228C1830.5 206.844 1830.33 207.591 1830.33 208.468C1830.33 209.327 1830.5 210.073 1830.83 210.708C1831.17 211.324 1831.63 211.8 1832.2 212.136C1832.78 212.472 1833.44 212.64 1834.16 212.64ZM1852.82 216.224C1851.11 216.224 1849.59 215.888 1848.29 215.216C1847 214.544 1846 213.629 1845.29 212.472C1844.58 211.296 1844.23 209.961 1844.23 208.468C1844.23 206.956 1844.57 205.621 1845.26 204.464C1845.97 203.288 1846.93 202.373 1848.15 201.72C1849.36 201.048 1850.73 200.712 1852.26 200.712C1853.74 200.712 1855.06 201.029 1856.24 201.664C1857.43 202.28 1858.38 203.176 1859.07 204.352C1859.76 205.509 1860.1 206.9 1860.1 208.524C1860.1 208.692 1860.09 208.888 1860.08 209.112C1860.06 209.317 1860.04 209.513 1860.02 209.7H1847.78V207.152H1857.72L1856.04 207.908C1856.04 207.124 1855.89 206.443 1855.57 205.864C1855.25 205.285 1854.81 204.837 1854.25 204.52C1853.69 204.184 1853.04 204.016 1852.29 204.016C1851.55 204.016 1850.88 204.184 1850.3 204.52C1849.74 204.837 1849.31 205.295 1848.99 205.892C1848.67 206.471 1848.51 207.161 1848.51 207.964V208.636C1848.51 209.457 1848.69 210.185 1849.04 210.82C1849.42 211.436 1849.93 211.912 1850.58 212.248C1851.26 212.565 1852.04 212.724 1852.94 212.724C1853.74 212.724 1854.44 212.603 1855.04 212.36C1855.65 212.117 1856.21 211.753 1856.72 211.268L1859.04 213.788C1858.35 214.572 1857.48 215.179 1856.44 215.608C1855.39 216.019 1854.19 216.224 1852.82 216.224ZM1863.01 216V200.936H1867.18V205.192L1866.6 203.96C1867.04 202.896 1867.76 202.093 1868.75 201.552C1869.74 200.992 1870.95 200.712 1872.36 200.712V204.744C1872.18 204.725 1872.01 204.716 1871.86 204.716C1871.71 204.697 1871.55 204.688 1871.38 204.688C1870.19 204.688 1869.22 205.033 1868.47 205.724C1867.74 206.396 1867.38 207.451 1867.38 208.888V216H1863.01ZM1894.28 200.712C1895.48 200.712 1896.53 200.955 1897.44 201.44C1898.38 201.907 1899.11 202.635 1899.63 203.624C1900.17 204.595 1900.44 205.845 1900.44 207.376V216H1896.07V208.048C1896.07 206.835 1895.82 205.939 1895.32 205.36C1894.81 204.781 1894.1 204.492 1893.19 204.492C1892.55 204.492 1891.98 204.641 1891.48 204.94C1890.98 205.22 1890.58 205.649 1890.3 206.228C1890.02 206.807 1889.88 207.544 1889.88 208.44V216H1885.52V208.048C1885.52 206.835 1885.26 205.939 1884.76 205.36C1884.28 204.781 1883.58 204.492 1882.66 204.492C1882.03 204.492 1881.46 204.641 1880.95 204.94C1880.45 205.22 1880.06 205.649 1879.78 206.228C1879.5 206.807 1879.36 207.544 1879.36 208.44V216H1874.99V200.936H1879.16V205.052L1878.38 203.848C1878.9 202.821 1879.64 202.047 1880.59 201.524C1881.56 200.983 1882.66 200.712 1883.89 200.712C1885.27 200.712 1886.48 201.067 1887.5 201.776C1888.55 202.467 1889.24 203.531 1889.58 204.968L1888.04 204.548C1888.54 203.372 1889.34 202.439 1890.44 201.748C1891.56 201.057 1892.84 200.712 1894.28 200.712ZM1904.36 216V200.936H1908.72V216H1904.36ZM1906.54 198.836C1905.74 198.836 1905.08 198.603 1904.58 198.136C1904.08 197.669 1903.82 197.091 1903.82 196.4C1903.82 195.709 1904.08 195.131 1904.58 194.664C1905.08 194.197 1905.74 193.964 1906.54 193.964C1907.34 193.964 1908 194.188 1908.5 194.636C1909 195.065 1909.26 195.625 1909.26 196.316C1909.26 197.044 1909 197.651 1908.5 198.136C1908.01 198.603 1907.36 198.836 1906.54 198.836ZM1917.85 216.224C1916.56 216.224 1915.32 216.075 1914.12 215.776C1912.95 215.459 1912.01 215.067 1911.32 214.6L1912.78 211.464C1913.47 211.893 1914.28 212.248 1915.21 212.528C1916.17 212.789 1917.1 212.92 1918.01 212.92C1919.02 212.92 1919.73 212.799 1920.14 212.556C1920.57 212.313 1920.79 211.977 1920.79 211.548C1920.79 211.193 1920.62 210.932 1920.28 210.764C1919.96 210.577 1919.54 210.437 1918.99 210.344C1918.45 210.251 1917.86 210.157 1917.2 210.064C1916.57 209.971 1915.92 209.849 1915.27 209.7C1914.62 209.532 1914.02 209.289 1913.48 208.972C1912.94 208.655 1912.5 208.225 1912.16 207.684C1911.84 207.143 1911.69 206.443 1911.69 205.584C1911.69 204.632 1911.96 203.792 1912.5 203.064C1913.06 202.336 1913.86 201.767 1914.91 201.356C1915.95 200.927 1917.2 200.712 1918.66 200.712C1919.68 200.712 1920.73 200.824 1921.79 201.048C1922.86 201.272 1923.74 201.599 1924.45 202.028L1923 205.136C1922.27 204.707 1921.53 204.417 1920.79 204.268C1920.06 204.1 1919.35 204.016 1918.66 204.016C1917.69 204.016 1916.98 204.147 1916.53 204.408C1916.08 204.669 1915.86 205.005 1915.86 205.416C1915.86 205.789 1916.02 206.069 1916.33 206.256C1916.67 206.443 1917.11 206.592 1917.65 206.704C1918.19 206.816 1918.78 206.919 1919.41 207.012C1920.07 207.087 1920.72 207.208 1921.37 207.376C1922.03 207.544 1922.62 207.787 1923.14 208.104C1923.68 208.403 1924.12 208.823 1924.45 209.364C1924.79 209.887 1924.96 210.577 1924.96 211.436C1924.96 212.369 1924.68 213.2 1924.12 213.928C1923.56 214.637 1922.75 215.197 1921.68 215.608C1920.64 216.019 1919.36 216.224 1917.85 216.224ZM1932.72 216.224C1931.43 216.224 1930.19 216.075 1929 215.776C1927.82 215.459 1926.89 215.067 1926.2 214.6L1927.65 211.464C1928.34 211.893 1929.16 212.248 1930.09 212.528C1931.04 212.789 1931.97 212.92 1932.89 212.92C1933.9 212.92 1934.61 212.799 1935.02 212.556C1935.45 212.313 1935.66 211.977 1935.66 211.548C1935.66 211.193 1935.49 210.932 1935.16 210.764C1934.84 210.577 1934.41 210.437 1933.87 210.344C1933.33 210.251 1932.73 210.157 1932.08 210.064C1931.44 209.971 1930.8 209.849 1930.14 209.7C1929.49 209.532 1928.89 209.289 1928.35 208.972C1927.81 208.655 1927.37 208.225 1927.04 207.684C1926.72 207.143 1926.56 206.443 1926.56 205.584C1926.56 204.632 1926.83 203.792 1927.37 203.064C1927.93 202.336 1928.74 201.767 1929.78 201.356C1930.83 200.927 1932.08 200.712 1933.53 200.712C1934.56 200.712 1935.6 200.824 1936.67 201.048C1937.73 201.272 1938.62 201.599 1939.33 202.028L1937.87 205.136C1937.14 204.707 1936.41 204.417 1935.66 204.268C1934.93 204.1 1934.22 204.016 1933.53 204.016C1932.56 204.016 1931.85 204.147 1931.4 204.408C1930.96 204.669 1930.73 205.005 1930.73 205.416C1930.73 205.789 1930.89 206.069 1931.21 206.256C1931.54 206.443 1931.98 206.592 1932.52 206.704C1933.07 206.816 1933.65 206.919 1934.29 207.012C1934.94 207.087 1935.6 207.208 1936.25 207.376C1936.9 207.544 1937.49 207.787 1938.01 208.104C1938.55 208.403 1938.99 208.823 1939.33 209.364C1939.66 209.887 1939.83 210.577 1939.83 211.436C1939.83 212.369 1939.55 213.2 1938.99 213.928C1938.43 214.637 1937.62 215.197 1936.56 215.608C1935.51 216.019 1934.23 216.224 1932.72 216.224ZM1942.53 216V200.936H1946.9V216H1942.53ZM1944.71 198.836C1943.91 198.836 1943.26 198.603 1942.75 198.136C1942.25 197.669 1942 197.091 1942 196.4C1942 195.709 1942.25 195.131 1942.75 194.664C1943.26 194.197 1943.91 193.964 1944.71 193.964C1945.51 193.964 1946.17 194.188 1946.67 194.636C1947.18 195.065 1947.43 195.625 1947.43 196.316C1947.43 197.044 1947.18 197.651 1946.67 198.136C1946.19 198.603 1945.53 198.836 1944.71 198.836ZM1958.12 216.224C1956.51 216.224 1955.08 215.888 1953.83 215.216C1952.6 214.544 1951.62 213.629 1950.89 212.472C1950.18 211.296 1949.83 209.961 1949.83 208.468C1949.83 206.956 1950.18 205.621 1950.89 204.464C1951.62 203.288 1952.6 202.373 1953.83 201.72C1955.08 201.048 1956.51 200.712 1958.12 200.712C1959.7 200.712 1961.12 201.048 1962.37 201.72C1963.62 202.373 1964.6 203.279 1965.31 204.436C1966.02 205.593 1966.38 206.937 1966.38 208.468C1966.38 209.961 1966.02 211.296 1965.31 212.472C1964.6 213.629 1963.62 214.544 1962.37 215.216C1961.12 215.888 1959.7 216.224 1958.12 216.224ZM1958.12 212.64C1958.85 212.64 1959.5 212.472 1960.08 212.136C1960.66 211.8 1961.11 211.324 1961.45 210.708C1961.79 210.073 1961.95 209.327 1961.95 208.468C1961.95 207.591 1961.79 206.844 1961.45 206.228C1961.11 205.612 1960.66 205.136 1960.08 204.8C1959.5 204.464 1958.85 204.296 1958.12 204.296C1957.39 204.296 1956.74 204.464 1956.16 204.8C1955.58 205.136 1955.11 205.612 1954.76 206.228C1954.42 206.844 1954.25 207.591 1954.25 208.468C1954.25 209.327 1954.42 210.073 1954.76 210.708C1955.11 211.324 1955.58 211.8 1956.16 212.136C1956.74 212.472 1957.39 212.64 1958.12 212.64ZM1978.45 200.712C1979.65 200.712 1980.71 200.955 1981.65 201.44C1982.6 201.907 1983.34 202.635 1983.89 203.624C1984.43 204.595 1984.7 205.845 1984.7 207.376V216H1980.33V208.048C1980.33 206.835 1980.06 205.939 1979.52 205.36C1978.99 204.781 1978.25 204.492 1977.28 204.492C1976.59 204.492 1975.96 204.641 1975.4 204.94C1974.86 205.22 1974.43 205.659 1974.11 206.256C1973.81 206.853 1973.67 207.619 1973.67 208.552V216H1969.3V200.936H1973.47V205.108L1972.69 203.848C1973.23 202.84 1974 202.065 1975.01 201.524C1976.02 200.983 1977.17 200.712 1978.45 200.712ZM1990.31 216.224C1989.56 216.224 1988.92 215.972 1988.38 215.468C1987.85 214.945 1987.59 214.283 1987.59 213.48C1987.59 212.677 1987.85 212.033 1988.38 211.548C1988.92 211.044 1989.56 210.792 1990.31 210.792C1991.07 210.792 1991.72 211.044 1992.24 211.548C1992.76 212.033 1993.02 212.677 1993.02 213.48C1993.02 214.283 1992.76 214.945 1992.24 215.468C1991.72 215.972 1991.07 216.224 1990.31 216.224ZM1996.99 221.656C1996.2 221.656 1995.43 221.535 1994.66 221.292C1993.9 221.049 1993.27 220.713 1992.79 220.284L1994.38 217.176C1994.72 217.475 1995.1 217.708 1995.53 217.876C1995.98 218.044 1996.42 218.128 1996.85 218.128C1997.46 218.128 1997.95 217.979 1998.3 217.68C1998.68 217.4 1999.01 216.924 1999.31 216.252L2000.09 214.404L2000.43 213.928L2005.83 200.936H2010.03L2003.23 216.924C2002.75 218.137 2002.19 219.089 2001.55 219.78C2000.93 220.471 2000.24 220.956 1999.48 221.236C1998.73 221.516 1997.9 221.656 1996.99 221.656ZM1999.56 216.588L1992.84 200.936H1997.35L2002.56 213.536L1999.56 216.588ZM2031.11 200.712C2032.3 200.712 2033.36 200.955 2034.27 201.44C2035.21 201.907 2035.93 202.635 2036.46 203.624C2037 204.595 2037.27 205.845 2037.27 207.376V216H2032.9V208.048C2032.9 206.835 2032.65 205.939 2032.14 205.36C2031.64 204.781 2030.93 204.492 2030.02 204.492C2029.38 204.492 2028.81 204.641 2028.31 204.94C2027.8 205.22 2027.41 205.649 2027.13 206.228C2026.85 206.807 2026.71 207.544 2026.71 208.44V216H2022.34V208.048C2022.34 206.835 2022.09 205.939 2021.59 205.36C2021.1 204.781 2020.4 204.492 2019.49 204.492C2018.85 204.492 2018.28 204.641 2017.78 204.94C2017.28 205.22 2016.88 205.649 2016.6 206.228C2016.32 206.807 2016.18 207.544 2016.18 208.44V216H2011.82V200.936H2015.99V205.052L2015.2 203.848C2015.73 202.821 2016.46 202.047 2017.42 201.524C2018.39 200.983 2019.49 200.712 2020.72 200.712C2022.1 200.712 2023.31 201.067 2024.33 201.776C2025.38 202.467 2026.07 203.531 2026.4 204.968L2024.86 204.548C2025.37 203.372 2026.17 202.439 2027.27 201.748C2028.39 201.057 2029.67 200.712 2031.11 200.712ZM2041.18 216V195.224H2045.55V216H2041.18Z" fill="white"/>
<path d="M871.638 38.14H883.734V42.82H871.638V38.14ZM872.07 52H866.238V26.8H885.282V31.48H872.07V52ZM888.834 52V25.288H894.45V52H888.834ZM909.274 52.288C907.066 52.288 905.122 51.856 903.442 50.992C901.786 50.128 900.502 48.952 899.59 47.464C898.678 45.952 898.222 44.236 898.222 42.316C898.222 40.372 898.666 38.656 899.554 37.168C900.466 35.656 901.702 34.48 903.262 33.64C904.822 32.776 906.586 32.344 908.554 32.344C910.45 32.344 912.154 32.752 913.666 33.568C915.202 34.36 916.414 35.512 917.302 37.024C918.19 38.512 918.634 40.3 918.634 42.388C918.634 42.604 918.622 42.856 918.598 43.144C918.574 43.408 918.55 43.66 918.526 43.9H902.794V40.624H915.574L913.414 41.596C913.414 40.588 913.21 39.712 912.802 38.968C912.394 38.224 911.83 37.648 911.11 37.24C910.39 36.808 909.55 36.592 908.59 36.592C907.63 36.592 906.778 36.808 906.034 37.24C905.314 37.648 904.75 38.236 904.342 39.004C903.934 39.748 903.73 40.636 903.73 41.668V42.532C903.73 43.588 903.958 44.524 904.414 45.34C904.894 46.132 905.554 46.744 906.394 47.176C907.258 47.584 908.266 47.788 909.418 47.788C910.45 47.788 911.35 47.632 912.118 47.32C912.91 47.008 913.63 46.54 914.278 45.916L917.266 49.156C916.378 50.164 915.262 50.944 913.918 51.496C912.574 52.024 911.026 52.288 909.274 52.288ZM931.733 52.288C929.645 52.288 927.785 51.868 926.153 51.028C924.521 50.164 923.237 48.976 922.301 47.464C921.389 45.952 920.933 44.236 920.933 42.316C920.933 40.372 921.389 38.656 922.301 37.168C923.237 35.656 924.521 34.48 926.153 33.64C927.785 32.776 929.645 32.344 931.733 32.344C933.773 32.344 935.549 32.776 937.061 33.64C938.573 34.48 939.689 35.692 940.409 37.276L936.053 39.616C935.549 38.704 934.913 38.032 934.145 37.6C933.401 37.168 932.585 36.952 931.697 36.952C930.737 36.952 929.873 37.168 929.105 37.6C928.337 38.032 927.725 38.644 927.269 39.436C926.837 40.228 926.621 41.188 926.621 42.316C926.621 43.444 926.837 44.404 927.269 45.196C927.725 45.988 928.337 46.6 929.105 47.032C929.873 47.464 930.737 47.68 931.697 47.68C932.585 47.68 933.401 47.476 934.145 47.068C934.913 46.636 935.549 45.952 936.053 45.016L940.409 47.392C939.689 48.952 938.573 50.164 937.061 51.028C935.549 51.868 933.773 52.288 931.733 52.288ZM951.844 52.288C949.564 52.288 947.788 51.712 946.516 50.56C945.244 49.384 944.608 47.644 944.608 45.34V28.348H950.224V45.268C950.224 46.084 950.44 46.72 950.872 47.176C951.304 47.608 951.892 47.824 952.636 47.824C953.524 47.824 954.28 47.584 954.904 47.104L956.416 51.064C955.84 51.472 955.144 51.784 954.328 52C953.536 52.192 952.708 52.288 951.844 52.288ZM941.62 37.384V33.064H955.048V37.384H941.62ZM968.187 52.288C966.123 52.288 964.287 51.856 962.679 50.992C961.095 50.128 959.835 48.952 958.899 47.464C957.987 45.952 957.531 44.236 957.531 42.316C957.531 40.372 957.987 38.656 958.899 37.168C959.835 35.656 961.095 34.48 962.679 33.64C964.287 32.776 966.123 32.344 968.187 32.344C970.227 32.344 972.051 32.776 973.659 33.64C975.267 34.48 976.527 35.644 977.439 37.132C978.351 38.62 978.807 40.348 978.807 42.316C978.807 44.236 978.351 45.952 977.439 47.464C976.527 48.952 975.267 50.128 973.659 50.992C972.051 51.856 970.227 52.288 968.187 52.288ZM968.187 47.68C969.123 47.68 969.963 47.464 970.707 47.032C971.451 46.6 972.039 45.988 972.471 45.196C972.903 44.38 973.119 43.42 973.119 42.316C973.119 41.188 972.903 40.228 972.471 39.436C972.039 38.644 971.451 38.032 970.707 37.6C969.963 37.168 969.123 36.952 968.187 36.952C967.251 36.952 966.411 37.168 965.667 37.6C964.923 38.032 964.323 38.644 963.867 39.436C963.435 40.228 963.219 41.188 963.219 42.316C963.219 43.42 963.435 44.38 963.867 45.196C964.323 45.988 964.923 46.6 965.667 47.032C966.411 47.464 967.251 47.68 968.187 47.68ZM994.333 32.344C995.869 32.344 997.237 32.656 998.437 33.28C999.661 33.88 1000.62 34.816 1001.32 36.088C1002.01 37.336 1002.36 38.944 1002.36 40.912V52H996.745V41.776C996.745 40.216 996.397 39.064 995.701 38.32C995.029 37.576 994.069 37.204 992.821 37.204C991.933 37.204 991.129 37.396 990.409 37.78C989.713 38.14 989.161 38.704 988.753 39.472C988.369 40.24 988.177 41.224 988.177 42.424V52H982.561V32.632H987.925V37.996L986.917 36.376C987.613 35.08 988.609 34.084 989.905 33.388C991.201 32.692 992.677 32.344 994.333 32.344ZM1017.2 52.288C1015 52.288 1013.05 51.856 1011.37 50.992C1009.72 50.128 1008.43 48.952 1007.52 47.464C1006.61 45.952 1006.15 44.236 1006.15 42.316C1006.15 40.372 1006.6 38.656 1007.48 37.168C1008.4 35.656 1009.63 34.48 1011.19 33.64C1012.75 32.776 1014.52 32.344 1016.48 32.344C1018.38 32.344 1020.08 32.752 1021.6 33.568C1023.13 34.36 1024.34 35.512 1025.23 37.024C1026.12 38.512 1026.56 40.3 1026.56 42.388C1026.56 42.604 1026.55 42.856 1026.53 43.144C1026.5 43.408 1026.48 43.66 1026.46 43.9H1010.72V40.624H1023.5L1021.34 41.596C1021.34 40.588 1021.14 39.712 1020.73 38.968C1020.32 38.224 1019.76 37.648 1019.04 37.24C1018.32 36.808 1017.48 36.592 1016.52 36.592C1015.56 36.592 1014.71 36.808 1013.96 37.24C1013.24 37.648 1012.68 38.236 1012.27 39.004C1011.86 39.748 1011.66 40.636 1011.66 41.668V42.532C1011.66 43.588 1011.89 44.524 1012.34 45.34C1012.82 46.132 1013.48 46.744 1014.32 47.176C1015.19 47.584 1016.2 47.788 1017.35 47.788C1018.38 47.788 1019.28 47.632 1020.05 47.32C1020.84 47.008 1021.56 46.54 1022.21 45.916L1025.2 49.156C1024.31 50.164 1023.19 50.944 1021.85 51.496C1020.5 52.024 1018.96 52.288 1017.2 52.288ZM1030.7 52V26.8H1041.61C1043.86 26.8 1045.81 27.172 1047.44 27.916C1049.07 28.636 1050.33 29.68 1051.22 31.048C1052.11 32.416 1052.55 34.048 1052.55 35.944C1052.55 37.816 1052.11 39.436 1051.22 40.804C1050.33 42.172 1049.07 43.228 1047.44 43.972C1045.81 44.692 1043.86 45.052 1041.61 45.052H1033.94L1036.53 42.424V52H1030.7ZM1036.53 43.072L1033.94 40.3H1041.28C1043.08 40.3 1044.43 39.916 1045.31 39.148C1046.2 38.38 1046.65 37.312 1046.65 35.944C1046.65 34.552 1046.2 33.472 1045.31 32.704C1044.43 31.936 1043.08 31.552 1041.28 31.552H1033.94L1036.53 28.78V43.072ZM1064.84 52.288C1063.23 52.288 1061.79 51.976 1060.52 51.352C1059.27 50.728 1058.3 49.78 1057.61 48.508C1056.91 47.212 1056.56 45.568 1056.56 43.576V32.632H1062.18V42.748C1062.18 44.356 1062.51 45.544 1063.19 46.312C1063.88 47.056 1064.85 47.428 1066.1 47.428C1066.97 47.428 1067.73 47.248 1068.41 46.888C1069.08 46.504 1069.61 45.928 1069.99 45.16C1070.37 44.368 1070.57 43.384 1070.57 42.208V32.632H1076.18V52H1070.85V46.672L1071.83 48.22C1071.18 49.564 1070.22 50.584 1068.95 51.28C1067.7 51.952 1066.33 52.288 1064.84 52.288ZM1081.38 52V25.288H1087V52H1081.38ZM1098.73 52.288C1097.07 52.288 1095.48 52.096 1093.94 51.712C1092.43 51.304 1091.23 50.8 1090.34 50.2L1092.21 46.168C1093.1 46.72 1094.15 47.176 1095.35 47.536C1096.57 47.872 1097.77 48.04 1098.95 48.04C1100.24 48.04 1101.15 47.884 1101.68 47.572C1102.23 47.26 1102.51 46.828 1102.51 46.276C1102.51 45.82 1102.29 45.484 1101.86 45.268C1101.45 45.028 1100.9 44.848 1100.21 44.728C1099.51 44.608 1098.74 44.488 1097.9 44.368C1097.09 44.248 1096.26 44.092 1095.42 43.9C1094.58 43.684 1093.81 43.372 1093.11 42.964C1092.42 42.556 1091.85 42.004 1091.42 41.308C1091.01 40.612 1090.81 39.712 1090.81 38.608C1090.81 37.384 1091.16 36.304 1091.85 35.368C1092.57 34.432 1093.61 33.7 1094.95 33.172C1096.29 32.62 1097.9 32.344 1099.77 32.344C1101.09 32.344 1102.44 32.488 1103.81 32.776C1105.17 33.064 1106.31 33.484 1107.23 34.036L1105.35 38.032C1104.42 37.48 1103.47 37.108 1102.51 36.916C1101.57 36.7 1100.66 36.592 1099.77 36.592C1098.53 36.592 1097.61 36.76 1097.04 37.096C1096.46 37.432 1096.17 37.864 1096.17 38.392C1096.17 38.872 1096.38 39.232 1096.79 39.472C1097.22 39.712 1097.78 39.904 1098.48 40.048C1099.17 40.192 1099.93 40.324 1100.75 40.444C1101.59 40.54 1102.43 40.696 1103.27 40.912C1104.11 41.128 1104.86 41.44 1105.53 41.848C1106.23 42.232 1106.79 42.772 1107.23 43.468C1107.66 44.14 1107.87 45.028 1107.87 46.132C1107.87 47.332 1107.51 48.4 1106.79 49.336C1106.07 50.248 1105.03 50.968 1103.66 51.496C1102.32 52.024 1100.67 52.288 1098.73 52.288ZM1120.95 52.288C1118.74 52.288 1116.8 51.856 1115.12 50.992C1113.46 50.128 1112.18 48.952 1111.27 47.464C1110.35 45.952 1109.9 44.236 1109.9 42.316C1109.9 40.372 1110.34 38.656 1111.23 37.168C1112.14 35.656 1113.38 34.48 1114.94 33.64C1116.5 32.776 1118.26 32.344 1120.23 32.344C1122.13 32.344 1123.83 32.752 1125.34 33.568C1126.88 34.36 1128.09 35.512 1128.98 37.024C1129.87 38.512 1130.31 40.3 1130.31 42.388C1130.31 42.604 1130.3 42.856 1130.27 43.144C1130.25 43.408 1130.23 43.66 1130.2 43.9H1114.47V40.624H1127.25L1125.09 41.596C1125.09 40.588 1124.89 39.712 1124.48 38.968C1124.07 38.224 1123.51 37.648 1122.79 37.24C1122.07 36.808 1121.23 36.592 1120.27 36.592C1119.31 36.592 1118.45 36.808 1117.71 37.24C1116.99 37.648 1116.43 38.236 1116.02 39.004C1115.61 39.748 1115.41 40.636 1115.41 41.668V42.532C1115.41 43.588 1115.63 44.524 1116.09 45.34C1116.57 46.132 1117.23 46.744 1118.07 47.176C1118.93 47.584 1119.94 47.788 1121.09 47.788C1122.13 47.788 1123.03 47.632 1123.79 47.32C1124.59 47.008 1125.31 46.54 1125.95 45.916L1128.94 49.156C1128.05 50.164 1126.94 50.944 1125.59 51.496C1124.25 52.024 1122.7 52.288 1120.95 52.288Z" fill="white"/>
</svg>
