<svg width="25" height="25" viewBox="0 0 25 25" fill="none" xmlns="http://www.w3.org/2000/svg">
<g clip-path="url(#clip0_62_36)">
<path d="M12.3303 25L17.4774 10H19.8529L25 25H22.6244L21.4367 21.1875H15.9502L14.7059 25H12.3303ZM16.629 19H20.7014L18.7217 12.8125H18.6086L16.629 19ZM3.39367 21.25L1.80995 19.5L7.52262 13.1875C6.80618 12.3125 6.1793 11.4062 5.64197 10.4688C5.10464 9.53125 4.63801 8.54167 4.24208 7.5H6.61765C6.95701 8.25 7.31995 8.92708 7.70645 9.53125C8.09295 10.1354 8.55958 10.7708 9.10633 11.4375C9.9359 10.4375 10.6241 9.41146 11.1708 8.35938C11.7176 7.30729 12.1795 6.1875 12.5566 5H0V2.5H7.91855V0H10.181V2.5H18.0995V5H14.819C14.4231 6.47917 13.8857 7.91667 13.207 9.3125C12.5283 10.7083 11.6893 12.0208 10.69 13.25L13.405 16.3125L12.5566 18.875L9.04977 15L3.39367 21.25Z" fill="white"/>
</g>
<defs>
<clipPath id="clip0_62_36">
<rect width="25" height="25" fill="white"/>
</clipPath>
</defs>
</svg>
